<?xml version="1.0" encoding="UTF-8"?>
<svg version="1.1" xmlns="http://www.w3.org/2000/svg" width="91" height="91">
<path d="M0 0 C30.03 0 60.06 0 91 0 C91 30.03 91 60.06 91 91 C60.97 91 30.94 91 0 91 C0 60.97 0 30.94 0 0 Z " fill="#2E2720" transform="translate(0,0)"/>
<path d="M0 0 C22.77 0 45.54 0 69 0 C69 30.03 69 60.06 69 91 C58.77 91 48.54 91 38 91 C38.33 88.69 38.66 86.38 39 84 C39.66 84 40.32 84 41 84 C41.185625 82.824375 41.185625 82.824375 41.375 81.625 C42 79 42 79 44 77 C44.70211894 75.34795544 45.36971413 73.68076231 46 72 C46.33 71.34 46.66 70.68 47 70 C46.979375 68.948125 46.95875 67.89625 46.9375 66.8125 C47.00310195 62.81078135 47.89577987 59.83229339 49 56 C49.28979885 53.54266457 49.493825 51.09386006 49.65625 48.625 C50 46 50 46 51.0234375 42.68359375 C52.09232591 38.65174668 52.19866331 35.22447715 52.125 31.0625 C52.11597656 30.37865234 52.10695312 29.69480469 52.09765625 28.99023438 C52.07438958 27.32666713 52.03853167 25.66328369 52 24 C51.34 24 50.68 24 50 24 C49.76216797 22.96939453 49.76216797 22.96939453 49.51953125 21.91796875 C48.21726792 16.36242817 48.21726792 16.36242817 44.75 12.0625 C43.8425 11.711875 42.935 11.36125 42 11 C40.824375 10.484375 39.64875 9.96875 38.4375 9.4375 C36.7359375 8.7259375 36.7359375 8.7259375 35 8 C33.65986503 7.34711373 32.32258472 6.68774405 31 6 C30.34 6.66 29.68 7.32 29 8 C23.60521847 9.48356492 18.45910822 8.70126884 13 8 C13 7.34 13 6.68 13 6 C13.66 6 14.32 6 15 6 C15 5.34 15 4.68 15 4 C10.06999139 6.57034637 5.81565868 8.87908863 2 13 C1.34 13 0.68 13 0 13 C0 8.71 0 4.42 0 0 Z " fill="#BBB0A7" transform="translate(22,0)"/>
<path d="M0 0 C2.64562784 3.7595764 3.80232059 8.13782764 3.1875 12.6875 C1.75 14.25 1.75 14.25 0.1875 15.6875 C-0.19039428 17.00889502 -0.52922707 18.34264115 -0.8125 19.6875 C-4.2499823 19.71651394 -7.68743312 19.73430335 -11.125 19.75 C-12.10146484 19.75837891 -13.07792969 19.76675781 -14.08398438 19.77539062 C-15.02177734 19.77861328 -15.95957031 19.78183594 -16.92578125 19.78515625 C-17.78985596 19.79039307 -18.65393066 19.79562988 -19.54418945 19.80102539 C-21.8125 19.6875 -21.8125 19.6875 -24.8125 18.6875 C-27.16442393 18.56724705 -29.52003531 18.51217665 -31.875 18.5 C-33.12410156 18.48582031 -34.37320313 18.47164062 -35.66015625 18.45703125 C-38.91015087 18.34937395 -38.91015087 18.34937395 -40.8125 20.6875 C-40.83625926 22.6806567 -40.83625926 22.6806567 -40.4375 24.8125 C-40.23125 26.09125 -40.025 27.37 -39.8125 28.6875 C-37.87690687 28.82254138 -35.938628 28.91951129 -34 29 C-32.38158203 29.08701172 -32.38158203 29.08701172 -30.73046875 29.17578125 C-29.28607422 28.93408203 -29.28607422 28.93408203 -27.8125 28.6875 C-27.31363281 27.85605469 -26.81476562 27.02460937 -26.30078125 26.16796875 C-25.80964844 25.34941406 -25.31851563 24.53085937 -24.8125 23.6875 C-21.625 23.375 -21.625 23.375 -18.8125 23.6875 C-18.67972656 24.51894531 -18.54695313 25.35039063 -18.41015625 26.20703125 C-18.23355469 27.29371094 -18.05695312 28.38039062 -17.875 29.5 C-17.70097656 30.57894531 -17.52695312 31.65789063 -17.34765625 32.76953125 C-16.87378079 35.73683356 -16.87378079 35.73683356 -15.8125 38.6875 C-18.80730917 39.5598412 -21.44825911 39.79579766 -24.5625 39.75 C-25.36171875 39.74097656 -26.1609375 39.73195312 -26.984375 39.72265625 C-27.58765625 39.71105469 -28.1909375 39.69945312 -28.8125 39.6875 C-28.8125 41.6675 -28.8125 43.6475 -28.8125 45.6875 C-31.1225 45.6875 -33.4325 45.6875 -35.8125 45.6875 C-35.8125 47.3375 -35.8125 48.9875 -35.8125 50.6875 C-38.8125 49.6875 -38.8125 49.6875 -40.1640625 47.359375 C-40.58429687 46.39515625 -41.00453125 45.4309375 -41.4375 44.4375 C-41.86289062 43.48359375 -42.28828125 42.5296875 -42.7265625 41.546875 C-46.26638308 32.22619635 -46.15152798 18.77639824 -42.58203125 9.484375 C-41.13805417 7.30170527 -39.67771953 5.51676349 -37.8125 3.6875 C-36.925625 2.718125 -36.03875 1.74875 -35.125 0.75 C-30.99335447 -2.93498115 -28.51988815 -3.6212994 -23.0625 -3.9375 C-21.87140625 -4.01226563 -20.6803125 -4.08703125 -19.453125 -4.1640625 C-11.96011282 -4.46957158 -6.33327415 -4.58616404 0 0 Z " fill="#BD8D77" transform="translate(66.8125,22.3125)"/>
<path d="M0 0 C3.3 0 6.6 0 10 0 C10.33 1.65 10.66 3.3 11 5 C11.66 5 12.32 5 13 5 C13.48828125 10.859375 13.48828125 10.859375 13 13 C12.17121338 13.56493164 11.34242676 14.12986328 10.48852539 14.71191406 C7.70177834 16.79860702 7.70177834 16.79860702 7.50830078 20.109375 C7.57001465 21.31078125 7.63172852 22.5121875 7.6953125 23.75 C7.73566116 24.73093628 7.73566116 24.73093628 7.77682495 25.73168945 C7.86885629 27.82307901 7.99655305 29.91056408 8.125 32 C8.18980731 33.373591 8.25232872 34.74729186 8.3125 36.12109375 C8.68219199 44.09557168 9.27542431 52.0503696 10 60 C11.32 60.33 12.64 60.66 14 61 C14.33 60.34 14.66 59.68 15 59 C15.66 59 16.32 59 17 59 C16.45276317 62.37462715 15.9451 64.08235 14 67 C13.34 67 12.68 67 12 67 C12 69.97 12 72.94 12 76 C12.66 76 13.32 76 14 76 C14.103125 74.948125 14.20625 73.89625 14.3125 72.8125 C15 69 15 69 16.5 66.6875 C18.33341512 63.40263124 18.49867801 60.92617536 18.6875 57.1875 C18.75324219 56.02605469 18.81898437 54.86460938 18.88671875 53.66796875 C18.92410156 52.78753906 18.96148438 51.90710937 19 51 C19.33 51 19.66 51 20 51 C20.50881977 53.6652464 21.00720141 56.33178419 21.5 59 C21.64308594 59.74378906 21.78617188 60.48757812 21.93359375 61.25390625 C22.84632568 66.25220015 23.13856719 70.91920316 23 76 C23.66 76 24.32 76 25 76 C25 76.99 25 77.98 25 79 C25.66 79 26.32 79 27 79 C27 82.96 27 86.92 27 91 C18.09 91 9.18 91 0 91 C0 60.97 0 30.94 0 0 Z " fill="#6F6B5E" transform="translate(0,0)"/>
<path d="M0 0 C2.3125 0.1875 2.3125 0.1875 5 1 C7.76196064 4.4524508 8.49513741 7.65818169 9 12 C9.66 12 10.32 12 11 12 C13.58995441 15.88493162 13.25225542 19.10567236 13.1953125 23.60546875 C13.1924826 24.44467361 13.18965271 25.28387848 13.18673706 26.14851379 C13.17554385 28.82832103 13.15044101 31.50779381 13.125 34.1875 C13.11496908 36.00455246 13.10584343 37.82161017 13.09765625 39.63867188 C13.07730902 44.09268038 13.03815926 48.54596589 13 53 C2.77 53 -7.46 53 -18 53 C-17.67 50.69 -17.34 48.38 -17 46 C-16.34 46 -15.68 46 -15 46 C-14.814375 44.824375 -14.814375 44.824375 -14.625 43.625 C-14 41 -14 41 -12 39 C-11.29788106 37.34795544 -10.63028587 35.68076231 -10 34 C-9.67 33.34 -9.34 32.68 -9 32 C-9.020625 30.948125 -9.04125 29.89625 -9.0625 28.8125 C-8.99689805 24.81078135 -8.10422013 21.83229339 -7 18 C-6.55626413 14.6744191 -6.25574545 11.34488132 -6 8 C-4.68 8.33 -3.36 8.66 -2 9 C-1.875 15.75 -1.875 15.75 -3 18 C-0.24358584 17.50243908 -0.24358584 17.50243908 2 16 C2.30437704 10.21683615 1.58813841 5.55848445 0 0 Z " fill="#757878" transform="translate(78,38)"/>
<path d="M0 0 C0.33 0 0.66 0 1 0 C1.08782542 3.52067351 1.14066643 7.04106144 1.1875 10.5625 C1.21263672 11.55314453 1.23777344 12.54378906 1.26367188 13.56445312 C1.32367729 19.58499611 0.77957348 23.65466639 -2 29 C-2.38285156 30.07894531 -2.38285156 30.07894531 -2.7734375 31.1796875 C-3.375 32.875 -3.375 32.875 -5 36 C-7.6875 36.9375 -7.6875 36.9375 -10 37 C-10 36.01 -10 35.02 -10 34 C-10.94875 34.185625 -11.8975 34.37125 -12.875 34.5625 C-16 35 -16 35 -18 34 C-18 32.02 -18 30.04 -18 28 C-20.97 28 -23.94 28 -27 28 C-27 27.67 -27 27.34 -27 27 C-24.03 26.67 -21.06 26.34 -18 26 C-18.495 25.195625 -18.99 24.39125 -19.5 23.5625 C-21.34527349 19.17997546 -21.28061086 15.67684769 -21 11 C-22.98 11 -24.96 11 -27 11 C-27.12375 11.61875 -27.2475 12.2375 -27.375 12.875 C-28 15 -28 15 -30 17 C-32.8203125 17.1953125 -32.8203125 17.1953125 -36.125 17.125 C-37.22070312 17.10695313 -38.31640625 17.08890625 -39.4453125 17.0703125 C-40.28835937 17.04710938 -41.13140625 17.02390625 -42 17 C-43.71504054 13.78173668 -44.47322581 11.69116133 -44 8 C-42.9140625 6.36328125 -42.9140625 6.36328125 -41 5 C-37.78515625 4.671875 -37.78515625 4.671875 -34.0625 4.75 C-32.83660156 4.76546875 -31.61070313 4.7809375 -30.34765625 4.796875 C-27 5 -27 5 -25.05688477 5.50878906 C-22.86633885 6.03192003 -20.99073962 6.09871019 -18.7421875 6.0625 C-17.95199219 6.05476563 -17.16179688 6.04703125 -16.34765625 6.0390625 C-15.12369141 6.01972656 -15.12369141 6.01972656 -13.875 6 C-5.2693475 5.86532625 -5.2693475 5.86532625 -3 7 C-2.814375 5.824375 -2.814375 5.824375 -2.625 4.625 C-2 2 -2 2 0 0 Z " fill="#9E705C" transform="translate(69,35)"/>
<path d="M0 0 C1.67013418 0.65793165 3.3357865 1.32723284 5 2 C6.134375 2.45375 7.26875 2.9075 8.4375 3.375 C17.26802218 7.40295749 17.26802218 7.40295749 19.375 12 C20 15 20 15 20 19 C20.66 19 21.32 19 22 19 C22.22415191 21.35359502 22.42959058 23.70648411 22.625 26.0625 C22.74101563 27.37347656 22.85703125 28.68445313 22.9765625 30.03515625 C23.00076936 34.13015044 22.24340023 37.12351694 21 41 C20.74411484 42.63911346 20.52748711 44.28555635 20.375 45.9375 C20.30023438 46.70964844 20.22546875 47.48179688 20.1484375 48.27734375 C20.09945312 48.84582031 20.05046875 49.41429687 20 50 C18.25588952 46.96984141 17.74412518 44.74426952 17.69140625 41.26171875 C17.66626953 40.35873047 17.64113281 39.45574219 17.61523438 38.52539062 C17.58029709 36.64524719 17.54900047 34.76503231 17.52148438 32.88476562 C17.33178257 26.37475486 16.82779053 20.82779053 12 16 C6.51017267 13.47694148 1.32654124 13.83075228 -4.5625 14.125 C-5.49513672 14.14820313 -6.42777344 14.17140625 -7.38867188 14.1953125 C-12.90126581 14.44677794 -15.91761183 14.97419939 -20 19 C-20.66 19 -21.32 19 -22 19 C-22.37125 20.051875 -22.37125 20.051875 -22.75 21.125 C-24 24 -24 24 -26.0625 26.5625 C-28.50048656 30.88796002 -28.56637153 34.39482171 -28.7265625 39.29296875 C-29 42 -29 42 -31 45 C-31.33 39.72 -31.66 34.44 -32 29 C-33.32 29 -34.64 29 -36 29 C-35.690625 27.9275 -35.38125 26.855 -35.0625 25.75 C-34.51009547 23.80033694 -33.96412756 21.84754212 -33.5 19.875 C-32.37486905 15.65575895 -31.72717238 13.48478159 -28 11 C-27.01 11.33 -26.02 11.66 -25 12 C-25 12.99 -25 13.98 -25 15 C-22.69 13.68 -20.38 12.36 -18 11 C-18.99 10.67 -19.98 10.34 -21 10 C-21 9.34 -21 8.68 -21 8 C-19.02 8 -17.04 8 -15 8 C-15.66 7.34 -16.32 6.68 -17 6 C-15.35 5.67 -13.7 5.34 -12 5 C-12.66 4.67 -13.32 4.34 -14 4 C-14 3.67 -14 3.34 -14 3 C-11.36 3 -8.72 3 -6 3 C-6 2.67 -6 2.34 -6 2 C-4.02 2 -2.04 2 0 2 C0 1.34 0 0.68 0 0 Z " fill="#29201B" transform="translate(52,5)"/>
<path d="M0 0 C1.125 1.5 1.125 1.5 2 4 C1.54374673 5.95537114 1.07749549 7.91055322 0.5078125 9.8359375 C-0.02593482 12.11052225 -0.07622486 14.04590714 0 16.375 C0 17.57125 0 18.7675 0 20 C-0.66 20.66 -1.32 21.32 -2 22 C-2.69748583 23.31747324 -3.36959957 24.64914193 -4 26 C-4.66 26 -5.32 26 -6 26 C-8.0078864 26.64252365 -10.00882592 27.30741771 -12 28 C-12.33 27.67 -12.66 27.34 -13 27 C-13.433125 28.11375 -13.86625 29.2275 -14.3125 30.375 C-16 34 -16 34 -19 36 C-23.85022689 36.60787804 -29.50922857 37.28747629 -33.96484375 34.984375 C-35.3125 33.6875 -35.3125 33.6875 -37 31 C-37 30.01 -37 29.02 -37 28 C-37.928125 27.814375 -38.85625 27.62875 -39.8125 27.4375 C-43 26 -43 26 -44.875 22.75 C-45.92901258 19.23662473 -46.26577804 16.63229988 -46 13 C-43.74754119 15.68841859 -42.11786042 17.64641875 -41 21 C-40.34 21.33 -39.68 21.66 -39 22 C-39 20.35 -39 18.7 -39 17 C-36.69 17 -34.38 17 -32 17 C-32 15.02 -32 13.04 -32 11 C-27.71 11.33 -23.42 11.66 -19 12 C-19 13.98 -19 15.96 -19 18 C-16.36 18 -13.72 18 -11 18 C-10.505 18.99 -10.505 18.99 -10 20 C-8.68 20 -7.36 20 -6 20 C-5.731875 18.989375 -5.46375 17.97875 -5.1875 16.9375 C-4.4373105 14.27968578 -3.55954079 11.99575301 -2.4375 9.4375 C-1.09152544 6.21886517 -0.42031224 3.44656034 0 0 Z " fill="#5E4337" transform="translate(70,51)"/>
<path d="M0 0 C17.82 0 35.64 0 54 0 C54 13 54 13 53 17 C53.495 18.485 53.495 18.485 54 20 C54.11659598 21.49676706 54.17498959 22.99875061 54.1875 24.5 C54.20167969 25.2734375 54.21585938 26.046875 54.23046875 26.84375 C54 29 54 29 52 32 C52 29.36 52 26.72 52 24 C51.34 24 50.68 24 50 24 C49.76216797 22.96939453 49.76216797 22.96939453 49.51953125 21.91796875 C48.21726792 16.36242817 48.21726792 16.36242817 44.75 12.0625 C43.8425 11.711875 42.935 11.36125 42 11 C40.824375 10.484375 39.64875 9.96875 38.4375 9.4375 C36.7359375 8.7259375 36.7359375 8.7259375 35 8 C33.65986503 7.34711373 32.32258472 6.68774405 31 6 C30.34 6.66 29.68 7.32 29 8 C23.60521847 9.48356492 18.45910822 8.70126884 13 8 C13 7.34 13 6.68 13 6 C13.66 6 14.32 6 15 6 C15 5.34 15 4.68 15 4 C10.06999139 6.57034637 5.81565868 8.87908863 2 13 C1.34 13 0.68 13 0 13 C0 8.71 0 4.42 0 0 Z " fill="#9F8A7C" transform="translate(22,0)"/>
<path d="M0 0 C0 2.31 0 4.62 0 7 C-1.98 7.99 -1.98 7.99 -4 9 C-1.525 9.495 -1.525 9.495 1 10 C1 10.99 1 11.98 1 13 C1.66 13 2.32 13 3 13 C3 14.32 3 15.64 3 17 C4.2065625 17.433125 4.2065625 17.433125 5.4375 17.875 C8 19 8 19 9 21 C8.04222656 20.68160156 7.08445312 20.36320312 6.09765625 20.03515625 C1.57036285 18.74245738 -2.87868924 18.58835329 -7.5625 18.4375 C-12.79246524 18.24531207 -17.84738793 18.01047984 -23 17 C-22.41814572 12.22879494 -21.28607042 8.24555935 -19 4 C-16.8125 2.6875 -16.8125 2.6875 -14 2 C-13.37609375 1.81824219 -12.7521875 1.63648437 -12.109375 1.44921875 C-7.98541062 0.29230508 -4.31564989 -0.21578249 0 0 Z " fill="#CEA493" transform="translate(57,21)"/>
<path d="M0 0 C1.67013418 0.65793165 3.3357865 1.32723284 5 2 C6.7015625 2.680625 6.7015625 2.680625 8.4375 3.375 C17.26802218 7.40295749 17.26802218 7.40295749 19.375 12 C20 15 20 15 20 19 C20.66 19 21.32 19 22 19 C22.22415191 21.35359502 22.42959058 23.70648411 22.625 26.0625 C22.74101563 27.37347656 22.85703125 28.68445313 22.9765625 30.03515625 C23.00076936 34.13015044 22.24340023 37.12351694 21 41 C20.74411484 42.63911346 20.52748711 44.28555635 20.375 45.9375 C20.30023438 46.70964844 20.22546875 47.48179688 20.1484375 48.27734375 C20.09945312 48.84582031 20.05046875 49.41429687 20 50 C18.25588952 46.96984141 17.74412518 44.74426952 17.69140625 41.26171875 C17.66626953 40.35873047 17.64113281 39.45574219 17.61523438 38.52539062 C17.58029709 36.64524719 17.54900047 34.76503231 17.52148438 32.88476562 C17.33178257 26.37475486 16.82779053 20.82779053 12 16 C6.4738363 13.47526707 1.0674996 13.77032182 -4.875 13.875 C-5.84953125 13.88402344 -6.8240625 13.89304687 -7.828125 13.90234375 C-10.21900728 13.92578377 -12.60937261 13.95859558 -15 14 C-14.01 12.68 -13.02 11.36 -12 10 C-11.34 10.33 -10.68 10.66 -10 11 C-3.93167094 11.38350035 2.00077234 10.88877447 8 10 C7.67 9.01 7.34 8.02 7 7 C6.01 7 5.02 7 4 7 C3.34 6.01 2.68 5.02 2 4 C0.68 4.33 -0.64 4.66 -2 5 C-2 5.66 -2 6.32 -2 7 C-2.66 7 -3.32 7 -4 7 C-4.66 5.35 -5.32 3.7 -6 2 C-4.02 2 -2.04 2 0 2 C0 1.34 0 0.68 0 0 Z " fill="#3D2D26" transform="translate(52,5)"/>
<path d="M0 0 C7.71536621 4.3390215 13.00865622 8.68564087 18 16 C18.33 16.33 18.66 16.66 19 17 C19 19.97 19 22.94 19 26 C11.74 26 4.48 26 -3 26 C-2 22 -2 22 -0.5625 19.6875 C2.37172855 14.6406269 3.28248094 9.79085918 3 4 C2.34 4 1.68 4 1 4 C0.67 2.68 0.34 1.36 0 0 Z " fill="#B8A69C" transform="translate(72,65)"/>
<path d="M0 0 C2.7575666 4.1363499 2.77448194 8.09456279 3.33984375 12.96875 C4.01997594 16.09172385 4.47200147 17.14360007 7 19 C7.66 19.268125 8.32 19.53625 9 19.8125 C11.90383006 21.5366491 12.59717855 24.00306327 14 27 C16.83387515 28.41693757 19.28029373 28.1699013 22.4375 28.1875 C23.59121094 28.20167969 24.74492188 28.21585938 25.93359375 28.23046875 C29.17280168 28.23925088 29.17280168 28.23925088 32 26 C33.07136051 23.69855891 34.07989717 21.3659787 35 19 C35.66 19.33 36.32 19.66 37 20 C40.0004758 19.02484536 41.7525351 18.2474649 44 16 C43.39009109 19.55780196 42.4216319 22.6828589 41 26 C40.34 26 39.68 26 39 26 C38.67 28.31 38.34 30.62 38 33 C27.11 33 16.22 33 5 33 C5 29.04 5 25.08 5 21 C4.34 21 3.68 21 3 21 C3 20.01 3 19.02 3 18 C2.34 18 1.68 18 1 18 C0.10395632 11.95170514 -0.11269443 6.1105424 0 0 Z " fill="#2C221E" transform="translate(22,58)"/>
<path d="M0 0 C1.32 0.33 2.64 0.66 4 1 C4.08302368 2.71098877 4.08302368 2.71098877 4.16772461 4.45654297 C4.37383055 8.67975555 4.58579916 12.90265683 4.79956055 17.12548828 C4.89133653 18.95483547 4.98151232 20.78426365 5.07006836 22.61376953 C5.19747211 25.24013736 5.33058679 27.86616221 5.46484375 30.4921875 C5.50343002 31.31306854 5.5420163 32.13394958 5.58177185 32.97970581 C5.70897079 37.12351773 5.70897079 37.12351773 7 41 C7.07116382 43.37402501 7.08409085 45.75000677 7.0625 48.125 C7.05347656 49.40632813 7.04445313 50.68765625 7.03515625 52.0078125 C7.02355469 52.99523437 7.01195312 53.98265625 7 55 C4 56 4 56 1 55 C0.05057909 42.81487303 -0.12259654 30.71660519 -0.0625 18.5 C-0.05746804 16.69401168 -0.05290817 14.88802197 -0.04882812 13.08203125 C-0.03797283 8.72131916 -0.02080475 4.36067551 0 0 Z " fill="#A29689" transform="translate(2,22)"/>
<path d="M0 0 C2.40201504 4.19879794 2.15864149 7.24075541 2 12 C2.66 12 3.32 12 4 12 C4 12.99 4 13.98 4 15 C4.66 15 5.32 15 6 15 C6 18.96 6 22.92 6 27 C-0.27 27 -6.54 27 -13 27 C-13 26.34 -13 25.68 -13 25 C-12.34 25 -11.68 25 -11 25 C-11 24.34 -11 23.68 -11 23 C-10.34 23 -9.68 23 -9 23 C-9 23.66 -9 24.32 -9 25 C-8.34 25 -7.68 25 -7 25 C-7.20625 24.113125 -7.4125 23.22625 -7.625 22.3125 C-8.02926638 18.74148035 -7.7676656 17.0934148 -6 14 C-5.01 13.67 -4.02 13.34 -3 13 C-1.96452953 9.97717357 -1.96452953 9.97717357 -1.3125 6.4375 C-1.06113281 5.23996094 -0.80976563 4.04242188 -0.55078125 2.80859375 C-0.36902344 1.88175781 -0.18726563 0.95492187 0 0 Z " fill="#9C9FA0" transform="translate(21,64)"/>
<path d="M0 0 C4.34482759 1.34482759 4.34482759 1.34482759 6 3 C6.08748207 4.92667507 6.10697334 6.85651861 6.09765625 8.78515625 C6.09443359 9.95498047 6.09121094 11.12480469 6.08789062 12.33007812 C6.07951172 13.56177734 6.07113281 14.79347656 6.0625 16.0625 C6.05798828 17.29806641 6.05347656 18.53363281 6.04882812 19.80664062 C6.03699608 22.87114117 6.02051173 25.93554721 6 29 C2.38020214 26.22914496 0.27774673 23.93428981 -2 20 C-2.99 19.34 -3.98 18.68 -5 18 C-4.74562289 15.37243412 -4.47235799 12.74928226 -4.1875 10.125 C-4.11724609 9.37863281 -4.04699219 8.63226563 -3.97460938 7.86328125 C-3.75289777 5.89448223 -3.38420661 3.94363342 -3 2 C-2.01 1.34 -1.02 0.68 0 0 Z " fill="#4F433F" transform="translate(85,53)"/>
<path d="M0 0 C2 2 2 2 2.22705078 5.34814453 C2.22673375 6.77640633 2.21541361 8.20469212 2.1953125 9.6328125 C2.1924826 10.38464813 2.18965271 11.13648376 2.18673706 11.91110229 C2.17552874 14.31589578 2.15042352 16.72031881 2.125 19.125 C2.11497102 20.75390088 2.10584503 22.38280758 2.09765625 24.01171875 C2.07558735 28.00795556 2.04105351 32.00391494 2 36 C3.1446875 35.505 3.1446875 35.505 4.3125 35 C7 34 7 34 10 34 C9.855625 33.40574219 9.71125 32.81148437 9.5625 32.19921875 C8.10983712 25.71267548 7.7729855 19.63386814 8 13 C9.32 13 10.64 13 12 13 C12.55969677 16.62245715 13.09467782 20.24813559 13.625 23.875 C13.78484375 24.90753906 13.9446875 25.94007812 14.109375 27.00390625 C14.25117188 27.99003906 14.39296875 28.97617187 14.5390625 29.9921875 C14.67521973 30.90339355 14.81137695 31.81459961 14.95166016 32.75341797 C14.9676123 33.49479004 14.98356445 34.23616211 15 35 C14.34 35.66 13.68 36.32 13 37 C12.505 35.515 12.505 35.515 12 34 C10.96089335 36.85016441 10.96089335 36.85016441 10.625 39.3125 C9.88195966 42.50757347 8.46401033 45.07197935 7 48 C6.30092586 50.73572585 6.30092586 50.73572585 6 53 C5.34 53 4.68 53 4 53 C4 50.03 4 47.06 4 44 C4.66 44 5.32 44 6 44 C7.41377341 41.36095629 8.37240135 38.92879371 9 36 C8.34 36 7.68 36 7 36 C6.67 36.99 6.34 37.98 6 39 C2.125 38.125 2.125 38.125 1 37 C-0.16497373 28.63246529 -0.12718844 20.17940177 -0.0625 11.75 C-0.05798828 10.61175781 -0.05347656 9.47351563 -0.04882812 8.30078125 C-0.03720214 5.53379591 -0.02086431 2.76692842 0 0 Z " fill="#755E4F" transform="translate(8,23)"/>
<path d="M0 0 C0.66 0 1.32 0 2 0 C2 4.29 2 8.58 2 13 C3.2375 12.071875 4.475 11.14375 5.75 10.1875 C7.16666667 9.125 8.58333333 8.0625 10 7 C10.68578125 6.43925781 11.3715625 5.87851563 12.078125 5.30078125 C14 4 14 4 17 4 C17 4.66 17 5.32 17 6 C16.34 6 15.68 6 15 6 C15 6.66 15 7.32 15 8 C15.63808594 8.12117187 16.27617188 8.24234375 16.93359375 8.3671875 C17.75988281 8.53476563 18.58617188 8.70234375 19.4375 8.875 C20.26121094 9.03742187 21.08492187 9.19984375 21.93359375 9.3671875 C22.61550781 9.57601563 23.29742187 9.78484375 24 10 C24.33 10.66 24.66 11.32 25 12 C22.03 11.67 19.06 11.34 16 11 C16.99 11.99 17.98 12.98 19 14 C16.36 13.67 13.72 13.34 11 13 C11 13.66 11 14.32 11 15 C12.65 15 14.3 15 16 15 C13.35149008 17.64850992 10.33793553 19.33103223 7 21 C6.34 20.34 5.68 19.68 5 19 C5.33 18.34 5.66 17.68 6 17 C4.35 17.66 2.7 18.32 1 19 C0.896875 20.0725 0.79375 21.145 0.6875 22.25 C0.02797801 25.84739269 -0.45776191 27.45776191 -3 30 C-3.66 30 -4.32 30 -5 30 C-4.72285156 28.92363281 -4.44570312 27.84726562 -4.16015625 26.73828125 C-1.91497094 17.77298854 -0.32235091 9.26758873 0 0 Z " fill="#332721" transform="translate(20,0)"/>
<path d="M0 0 C2.3125 0.1875 2.3125 0.1875 5 1 C7.76196064 4.4524508 8.49513741 7.65818169 9 12 C9.66 12 10.32 12 11 12 C11.99 13.485 11.99 13.485 13 15 C12.67 15.99 12.34 16.98 12 18 C10.8553125 17.4740625 10.8553125 17.4740625 9.6875 16.9375 C6.95240621 15.67639116 6.95240621 15.67639116 4 17 C4.02320312 17.58007812 4.04640625 18.16015625 4.0703125 18.7578125 C4.18250423 23.61411166 3.87514915 27.42932395 2 32 C-2.875 30.25 -2.875 30.25 -4 28 C-3.34 28 -2.68 28 -2 28 C-2.33 25.36 -2.66 22.72 -3 20 C-3.33 20 -3.66 20 -4 20 C-4 16.37 -4 12.74 -4 9 C-3.34 9 -2.68 9 -2 9 C-1.875 15.75 -1.875 15.75 -3 18 C-0.24358584 17.50243908 -0.24358584 17.50243908 2 16 C2.30437704 10.21683615 1.58813841 5.55848445 0 0 Z " fill="#948F8C" transform="translate(78,38)"/>
<path d="M0 0 C1.62723299 0.45034123 3.25173664 0.91055354 4.875 1.375 C5.77992187 1.63023438 6.68484375 1.88546875 7.6171875 2.1484375 C10 3 10 3 12 5 C12 5.99 12 6.98 12 8 C13.32 8 14.64 8 16 8 C16 11.96 16 15.92 16 20 C15.34 19.67 14.68 19.34 14 19 C14 18.34 14 17.68 14 17 C13.34 17 12.68 17 12 17 C11.75765625 16.28972656 11.5153125 15.57945313 11.265625 14.84765625 C10.93046875 13.92855469 10.5953125 13.00945313 10.25 12.0625 C9.76273438 10.68771484 9.76273438 10.68771484 9.265625 9.28515625 C8.22179047 6.8211165 8.22179047 6.8211165 5.859375 6.18359375 C5.24578125 6.12300781 4.6321875 6.06242187 4 6 C4.33 6.99 4.66 7.98 5 9 C6.17278902 13.18124781 6.43383739 16.66162609 6 21 C4 23 4 23 2 24 C1.34 23.67 0.68 23.34 0 23 C0.495 18.545 0.495 18.545 1 14 C0.01 14.33 -0.98 14.66 -2 15 C-1.47462276 9.9697924 -0.89405214 4.98114761 0 0 Z " fill="#9C897C" transform="translate(75,33)"/>
<path d="M0 0 C3.3 0 6.6 0 10 0 C10.02709444 2.08326131 10.04643873 4.16662441 10.0625 6.25 C10.07410156 7.41015625 10.08570312 8.5703125 10.09765625 9.765625 C10 13 10 13 9.43359375 15.234375 C8.77848364 17.22437387 8.77848364 17.22437387 10 20 C10.11659598 21.49676706 10.17498959 22.99875061 10.1875 24.5 C10.20167969 25.2734375 10.21585938 26.046875 10.23046875 26.84375 C10 29 10 29 8 32 C8 29.36 8 26.72 8 24 C7.34 24 6.68 24 6 24 C5.82984375 23.33613281 5.6596875 22.67226563 5.484375 21.98828125 C3.98594929 16.27678213 3.98594929 16.27678213 0.75 11.4375 C-1.34147748 8.52437066 -1.13716086 7.65043881 -0.75 4.1875 C-0.5025 2.805625 -0.255 1.42375 0 0 Z " fill="#A5998F" transform="translate(66,0)"/>
<path d="M0 0 C2 2 2 2 2.3125 5.875 C2.24073833 8.69420851 2.02826135 9.94616885 0.6875 12.5 C-1 14 -1 14 -4 14 C-4.268125 14.556875 -4.53625 15.11375 -4.8125 15.6875 C-5.204375 16.450625 -5.59625 17.21375 -6 18 C-6.391875 18.9075 -6.78375 19.815 -7.1875 20.75 C-7.785625 21.4925 -8.38375 22.235 -9 23 C-11.31 23 -13.62 23 -16 23 C-15.67 18.38 -15.34 13.76 -15 9 C-12.52604167 9.09765625 -10.05208333 9.1953125 -7.578125 9.29296875 C-4.4928302 8.94236707 -3.2011999 8.16117809 -1 6 C-0.19053578 2.89802603 -0.19053578 2.89802603 0 0 Z " fill="#C2917A" transform="translate(68,45)"/>
<path d="M0 0 C1.05445313 -0.00515625 2.10890625 -0.0103125 3.1953125 -0.015625 C5.875 0.25 5.875 0.25 7.875 2.25 C8.3125 5.1875 8.3125 5.1875 7.875 8.25 C6.0625 10.1875 6.0625 10.1875 2.875 11.25 C-0.85561877 11.28225319 -4.4738456 11.03197027 -8.125 10.25 C-10.125 8.25 -10.125 8.25 -10.25 5.125 C-10.20875 4.17625 -10.1675 3.2275 -10.125 2.25 C-6.69875115 0.16445722 -3.97589184 -0.01953755 0 0 Z " fill="#654235" transform="translate(59.125,41.75)"/>
<path d="M0 0 C0.33 0 0.66 0 1 0 C3.78556688 9.53078254 3.26028714 17.98785412 -1 27 C-1.99 27.33 -2.98 27.66 -4 28 C-4.33 31.3 -4.66 34.6 -5 38 C-5.66 38 -6.32 38 -7 38 C-7 37.34 -7 36.68 -7 36 C-7.66 36 -8.32 36 -9 36 C-9 36.66 -9 37.32 -9 38 C-9.66 38 -10.32 38 -11 38 C-11 38.66 -11 39.32 -11 40 C-12.65 40 -14.3 40 -16 40 C-15.75 38.125 -15.75 38.125 -15 36 C-14.38125 35.731875 -13.7625 35.46375 -13.125 35.1875 C-9.83671924 33.34993134 -9.33794952 30.40568969 -8 27 C-7.34 26.34 -6.68 25.68 -6 25 C-5.44599646 23.54020066 -4.95158795 22.05715794 -4.5 20.5625 C-3.58317446 17.53797225 -2.79028536 15.68542804 -1 13 C-0.5396236 9.80193335 -0.5396236 9.80193335 -0.375 6.3125 C-0.30023438 5.13300781 -0.22546875 3.95351563 -0.1484375 2.73828125 C-0.09945313 1.83464844 -0.05046875 0.93101563 0 0 Z " fill="#969B9C" transform="translate(19,51)"/>
<path d="M0 0 C4.14190004 0.09590507 7.08443643 0.31287189 10.1875 3.3125 C10.6875 5.8125 10.6875 5.8125 10.1875 8.3125 C9.04296875 9.95703125 9.04296875 9.95703125 7.1875 11.3125 C4.26953125 11.60546875 4.26953125 11.60546875 1 11.5 C-0.08667969 11.47292969 -1.17335938 11.44585937 -2.29296875 11.41796875 C-3.54013672 11.36576172 -3.54013672 11.36576172 -4.8125 11.3125 C-6.5348033 8.10026766 -7.20039051 5.99745988 -6.8125 2.3125 C-4.32244323 -0.17755677 -3.43779268 0.01546234 0 0 Z " fill="#734C3E" transform="translate(31.8125,40.6875)"/>
<path d="M0 0 C0.33 0 0.66 0 1 0 C1 4.95 1 9.9 1 15 C1.99 15 2.98 15 4 15 C4.33 12.69 4.66 10.38 5 8 C6.65 8.33 8.3 8.66 10 9 C9.67 9.66 9.34 10.32 9 11 C8.34 11 7.68 11 7 11 C6.97303635 12.79158489 6.95362083 14.58328473 6.9375 16.375 C6.92589844 17.37273438 6.91429687 18.37046875 6.90234375 19.3984375 C6.81993398 21.98432453 6.81993398 21.98432453 8 24 C8.13415472 26.6723621 8.04318541 29.32250488 8 32 C4.91190305 33.76462683 3.76687864 34 0 34 C0 22.78 0 11.56 0 0 Z " fill="#463D32" transform="translate(10,25)"/>
<path d="M0 0 C0.66 0 1.32 0 2 0 C2.02505615 0.69448242 2.0501123 1.38896484 2.07592773 2.10449219 C2.19357951 5.31977376 2.31552205 8.53487975 2.4375 11.75 C2.47681641 12.84183594 2.51613281 13.93367188 2.55664062 15.05859375 C2.83879429 22.39458894 3.32632614 29.68960535 4 37 C5.32 37.33 6.64 37.66 8 38 C8.33 37.34 8.66 36.68 9 36 C9.66 36 10.32 36 11 36 C10.45276317 39.37462715 9.9451 41.08235 8 44 C7.34 44 6.68 44 6 44 C6.16048828 45.03060547 6.16048828 45.03060547 6.32421875 46.08203125 C6.44410156 46.98308594 6.56398438 47.88414063 6.6875 48.8125 C6.87892578 50.15248047 6.87892578 50.15248047 7.07421875 51.51953125 C7 54 7 54 5.6875 55.8125 C3.4011239 57.42143133 1.72977292 57.22133294 -1 57 C-1.495 55.515 -1.495 55.515 -2 54 C-0.68 54 0.64 54 2 54 C2.02692484 51.70839681 2.04636124 49.41670454 2.0625 47.125 C2.07410156 45.84882812 2.08570313 44.57265625 2.09765625 43.2578125 C2.23176569 40.11335348 2.23176569 40.11335348 1 38 C0.84725485 36.43749524 0.75063715 34.86930201 0.68359375 33.30078125 C0.64161865 32.34502197 0.59964355 31.3892627 0.55639648 30.40454102 C0.51716064 29.38416748 0.4779248 28.36379395 0.4375 27.3125 C0.37381226 25.76357056 0.37381226 25.76357056 0.30883789 24.18334961 C-0.00321526 16.11705833 -0.11475915 8.07139321 0 0 Z " fill="#988673" transform="translate(6,23)"/>
<path d="M0 0 C2.5 1.375 2.5 1.375 5 3 C5 3.66 5 4.32 5 5 C5.66 5 6.32 5 7 5 C8 7 8 7 8 13 C2.72 13 -2.56 13 -8 13 C-8 7 -8 7 -6.6875 5.3203125 C-5.125 4.21354167 -3.5625 3.10677083 -2 2 C-1.67 3.32 -1.34 4.64 -1 6 C-0.67 4.02 -0.34 2.04 0 0 Z " fill="#988A81" transform="translate(83,78)"/>
<path d="M0 0 C0.85078125 0.04833984 1.7015625 0.09667969 2.578125 0.14648438 C3.46757813 0.20255859 4.35703125 0.25863281 5.2734375 0.31640625 C6.170625 0.36861328 7.0678125 0.42082031 7.9921875 0.47460938 C10.21127762 0.60444975 12.42993621 0.73941964 14.6484375 0.87890625 C14.6484375 2.19890625 14.6484375 3.51890625 14.6484375 4.87890625 C13.9884375 4.87890625 13.3284375 4.87890625 12.6484375 4.87890625 C12.6484375 4.21890625 12.6484375 3.55890625 12.6484375 2.87890625 C8.3584375 3.53890625 4.0684375 4.19890625 -0.3515625 4.87890625 C-0.3515625 5.20890625 -0.3515625 5.53890625 -0.3515625 5.87890625 C5.5884375 6.86890625 5.5884375 6.86890625 11.6484375 7.87890625 C11.6484375 8.53890625 11.6484375 9.19890625 11.6484375 9.87890625 C6.04280708 10.70513296 1.22554398 10.94686281 -4.3515625 9.87890625 C-5.84977309 6.50793242 -6.3515625 4.67448506 -6.3515625 0.87890625 C-3.94721244 -0.32326878 -2.66774881 -0.16006493 0 0 Z " fill="#845245" transform="translate(39.3515625,73.12109375)"/>
<path d="M0 0 C2.97 0 5.94 0 9 0 C9 5.94 9 11.88 9 18 C4 16 4 16 2.25 14.0625 C0.38709243 9.49837645 0.24831809 4.88929759 0 0 Z " fill="#AB9B8C" transform="translate(82,0)"/>
<path d="M0 0 C0.33 0 0.66 0 1 0 C1.28571429 8.57142857 1.28571429 8.57142857 -1 12 C-1.66 12 -2.32 12 -3 12 C-5.0078864 12.64252365 -7.00882592 13.30741771 -9 14 C-9.33 13.67 -9.66 13.34 -10 13 C-10.6496875 14.670625 -10.6496875 14.670625 -11.3125 16.375 C-13 20 -13 20 -16 22 C-19.06640625 22.265625 -19.06640625 22.265625 -22.5625 22.25 C-23.71878906 22.25515625 -24.87507813 22.2603125 -26.06640625 22.265625 C-29 22 -29 22 -31 20 C-30.18015625 20.01160156 -29.3603125 20.02320312 -28.515625 20.03515625 C-27.43796875 20.04417969 -26.3603125 20.05320312 -25.25 20.0625 C-24.18265625 20.07410156 -23.1153125 20.08570312 -22.015625 20.09765625 C-19.4429188 20.01434323 -17.39736725 19.91011164 -15 19 C-13.21715186 15.70173093 -13 13.8225249 -13 10 C-19.93 9.34 -26.86 8.68 -34 8 C-34 7.67 -34 7.34 -34 7 C-26.08 7 -18.16 7 -10 7 C-10 8.32 -10 9.64 -10 11 C-9.01 11 -8.02 11 -7 11 C-7 10.34 -7 9.68 -7 9 C-5.02 8.67 -3.04 8.34 -1 8 C-0.67 5.36 -0.34 2.72 0 0 Z " fill="#46332A" transform="translate(67,65)"/>
<path d="M0 0 C1.27230469 0.01804687 2.54460938 0.03609375 3.85546875 0.0546875 C5.31919922 0.08949219 5.31919922 0.08949219 6.8125 0.125 C6.8125 0.455 6.8125 0.785 6.8125 1.125 C5.99265625 1.17398437 5.1728125 1.22296875 4.328125 1.2734375 C3.25046875 1.34820313 2.1728125 1.42296875 1.0625 1.5 C-0.53851563 1.60441406 -0.53851563 1.60441406 -2.171875 1.7109375 C-5.02643674 2.1028851 -6.81716246 2.51714866 -9.1875 4.125 C-10.30430706 6.97479639 -10.30430706 6.97479639 -11.1875 10.125 C-12.18164593 11.79516516 -13.1810725 13.46220673 -14.1875 15.125 C-14.3525 15.785 -14.5175 16.445 -14.6875 17.125 C-15.1875 19.125 -15.1875 19.125 -16.75 21.4375 C-18.56159028 24.82438617 -18.41012474 27.34037938 -18.1875 31.125 C-18.8475 31.125 -19.5075 31.125 -20.1875 31.125 C-22.45068807 17.54587156 -22.45068807 17.54587156 -18.5 11.4375 C-13.20767724 4.19800188 -9.25804078 -0.16987231 0 0 Z " fill="#AF7D63" transform="translate(44.1875,18.875)"/>
<path d="M0 0 C-3.02755613 2.01837075 -4.0056929 2.19790667 -7.4375 2.5625 C-10.44079016 3.16315803 -11.62114511 3.47740612 -13.44140625 5.98828125 C-15.03517055 9.58160223 -16.05916949 13.19363998 -17 17 C-15.89543457 17.029729 -15.89543457 17.029729 -14.76855469 17.06005859 C-11.42867944 17.15537828 -8.08942361 17.26502996 -4.75 17.375 C-3.59113281 17.4059375 -2.43226562 17.436875 -1.23828125 17.46875 C0.43427734 17.52675781 0.43427734 17.52675781 2.140625 17.5859375 C3.16704102 17.6173584 4.19345703 17.6487793 5.25097656 17.68115234 C7.96867073 17.99636625 9.66924435 18.61032351 12 20 C9.06281233 20.19461488 6.12550068 20.38097593 3.1875 20.5625 C2.35412109 20.61857422 1.52074219 20.67464844 0.66210938 20.73242188 C-0.14033203 20.78076172 -0.94277344 20.82910156 -1.76953125 20.87890625 C-2.50792236 20.9260376 -3.24631348 20.97316895 -4.00708008 21.02172852 C-6 21 -6 21 -9 20 C-11.73865287 19.92948886 -14.45027588 19.90642235 -17.1875 19.9375 C-17.93708984 19.94201172 -18.68667969 19.94652344 -19.45898438 19.95117188 C-21.30602383 19.96293646 -23.15302213 19.98087135 -25 20 C-23.625 18 -23.625 18 -22 16 C-21.34 16 -20.68 16 -20 16 C-19.855625 15.38125 -19.71125 14.7625 -19.5625 14.125 C-19 12 -19 12 -18 10 C-17.34 10 -16.68 10 -16 10 C-15.896875 9.071875 -15.79375 8.14375 -15.6875 7.1875 C-15 4 -15 4 -13.875 2.1875 C-9.81835966 -0.38170555 -4.67566269 -0.14168675 0 0 Z " fill="#C79986" transform="translate(51,21)"/>
<path d="M0 0 C1.21236328 0.02707031 1.21236328 0.02707031 2.44921875 0.0546875 C3.37154297 0.08949219 3.37154297 0.08949219 4.3125 0.125 C4.3125 0.455 4.3125 0.785 4.3125 1.125 C6.6225 1.785 8.9325 2.445 11.3125 3.125 C10.9825 4.445 10.6525 5.765 10.3125 7.125 C7.5416017 7.15196009 4.7709655 7.17181952 2 7.1875 C0.82147461 7.20006836 0.82147461 7.20006836 -0.38085938 7.21289062 C-1.13818359 7.21611328 -1.89550781 7.21933594 -2.67578125 7.22265625 C-3.72052612 7.23051147 -3.72052612 7.23051147 -4.78637695 7.23852539 C-6.6875 7.125 -6.6875 7.125 -9.6875 6.125 C-7.58496928 1.27300604 -5.24222142 -0.15194845 0 0 Z " fill="#D5B2A7" transform="translate(44.6875,30.875)"/>
<path d="M0 0 C1.65 0 3.3 0 5 0 C5.13277344 0.83144531 5.26554687 1.66289063 5.40234375 2.51953125 C5.57894531 3.60621094 5.75554688 4.69289063 5.9375 5.8125 C6.11152344 6.89144531 6.28554688 7.97039063 6.46484375 9.08203125 C6.93871921 12.04933356 6.93871921 12.04933356 8 15 C6.58456585 15.19658808 5.16755969 15.38187546 3.75 15.5625 C2.96109375 15.66691406 2.1721875 15.77132812 1.359375 15.87890625 C-1.00532874 16.00027349 -2.7511037 15.69633257 -5 15 C-5 14.34 -5 13.68 -5 13 C-4.01 13 -3.02 13 -2 13 C-1.93941406 12.39671875 -1.87882812 11.7934375 -1.81640625 11.171875 C-1.73261719 10.37265625 -1.64882813 9.5734375 -1.5625 8.75 C-1.48128906 7.96109375 -1.40007813 7.1721875 -1.31640625 6.359375 C-1.02365007 4.17635361 -0.57935581 2.1226818 0 0 Z " fill="#CD9B8D" transform="translate(43,46)"/>
<path d="M0 0 C4.29 0 8.58 0 13 0 C13 1.32 13 2.64 13 4 C10.875 5.9375 10.875 5.9375 8 8 C6.93252937 8.91087347 5.87002028 9.82759288 4.8125 10.75 C2 13 2 13 0 13 C0 8.71 0 4.42 0 0 Z " fill="#A89D93" transform="translate(22,0)"/>
<path d="M0 0 C0.33 0.66 0.66 1.32 1 2 C0.34 2 -0.32 2 -1 2 C-0.34 3.98 0.32 5.96 1 8 C1.66 7.34 2.32 6.68 3 6 C5.625 6.375 5.625 6.375 8 7 C6.125 12.75 6.125 12.75 5 15 C5.66 15 6.32 15 7 15 C6.01 18.3 5.02 21.6 4 25 C3.01 25 2.02 25 1 25 C1 20.05 1 15.1 1 10 C0.34 10 -0.32 10 -1 10 C-2.57035335 7.50590939 -3.0274945 6.29556584 -2.75 3.3125 C-2.5025 2.549375 -2.255 1.78625 -2 1 C-1.34 0.67 -0.68 0.34 0 0 Z " fill="#2E2B25" transform="translate(10,15)"/>
<path d="M0 0 C0.33 0.66 0.66 1.32 1 2 C0.33352358 3.69951486 -0.34690945 5.39572436 -1.1171875 7.05078125 C-2.02618751 8.98217015 -2.02618751 8.98217015 -2.6953125 10.98046875 C-3.375 12.875 -3.375 12.875 -5 16 C-7.6875 16.9375 -7.6875 16.9375 -10 17 C-10 16.01 -10 15.02 -10 14 C-11.423125 14.2784375 -11.423125 14.2784375 -12.875 14.5625 C-16 15 -16 15 -18 14 C-18 12.02 -18 10.04 -18 8 C-20.97 8 -23.94 8 -27 8 C-27 7.67 -27 7.34 -27 7 C-23.7 7 -20.4 7 -17 7 C-17 8.98 -17 10.96 -17 13 C-14.69 13 -12.38 13 -10 13 C-9.731875 12.2575 -9.46375 11.515 -9.1875 10.75 C-8.0392528 8.09090121 -6.96498625 6.12218515 -5 4 C-4.01 4 -3.02 4 -2 4 C-1.34 2.68 -0.68 1.36 0 0 Z " fill="#976955" transform="translate(69,55)"/>
<path d="M0 0 C0.33 0 0.66 0 1 0 C1.08160748 1.89510699 1.13946459 3.79124504 1.1875 5.6875 C1.22230469 6.74324219 1.25710937 7.79898438 1.29296875 8.88671875 C0.96088528 12.41565912 -0.01757611 14.10556512 -2 17 C-2.66 18.32 -3.32 19.64 -4 21 C-6.97 21 -9.94 21 -13 21 C-12.67 18.69 -12.34 16.38 -12 14 C-11.34 14 -10.68 14 -10 14 C-9.67 12.35 -9.34 10.7 -9 9 C-8.67 9.66 -8.34 10.32 -8 11 C-8.33 11.66 -8.66 12.32 -9 13 C-8.01 13.33 -7.02 13.66 -6 14 C-6.33 14.99 -6.66 15.98 -7 17 C-6.34 16.67 -5.68 16.34 -5 16 C-4.505 14.2675 -4.505 14.2675 -4 12.5 C-3.505 10.7675 -3.505 10.7675 -3 9 C-2.34 8.67 -1.68 8.34 -1 8 C-0.53476937 6.10466658 -0.53476937 6.10466658 -0.375 3.9375 C-0.25125 2.638125 -0.1275 1.33875 0 0 Z " fill="#555554" transform="translate(73,70)"/>
<path d="M0 0 C4.95 0 9.9 0 15 0 C14.93489583 2.21354167 14.86979167 4.42708333 14.8046875 6.640625 C15.0171622 9.20731941 15.71345895 10.7916067 17 13 C16.484375 12.731875 15.96875 12.46375 15.4375 12.1875 C12.33598585 10.67650593 9.17737194 9.34427274 6 8 C7.32 7.67 8.64 7.34 10 7 C6.7 5.35 3.4 3.7 0 2 C0 1.34 0 0.68 0 0 Z " fill="#8E7D71" transform="translate(51,0)"/>
<path d="M0 0 C1.134375 0.020625 2.26875 0.04125 3.4375 0.0625 C3.1075 2.0425 2.7775 4.0225 2.4375 6.0625 C3.4275 6.3925 4.4175 6.7225 5.4375 7.0625 C5.4375 8.7125 5.4375 10.3625 5.4375 12.0625 C3.1275 12.3925 0.8175 12.7225 -1.5625 13.0625 C-5.09191176 5.5625 -5.09191176 5.5625 -4.5625 1.0625 C-3.5625 0.0625 -3.5625 0.0625 0 0 Z " fill="#F1DABC" transform="translate(5.5625,-0.0625)"/>
<path d="M0 0 C2.21484375 0.015625 2.21484375 0.015625 4.9375 0.25 C6.28134766 0.35054687 6.28134766 0.35054687 7.65234375 0.453125 C10 1 10 1 12 4 C11.01 4 10.02 4 9 4 C9.33 4.66 9.66 5.32 10 6 C5.125 7 5.125 7 4 7 C3.01 7.33 2.02 7.66 1 8 C1 8.66 1 9.32 1 10 C-3.47058824 14 -3.47058824 14 -6 14 C-6.33 14.99 -6.66 15.98 -7 17 C-7.33 16.34 -7.66 15.68 -8 15 C-7.505 14.5875 -7.01 14.175 -6.5 13.75 C-4.56613908 11.87797662 -4.56613908 11.87797662 -5 8 C-4.01 7.34 -3.02 6.68 -2 6 C-2.99 5.67 -3.98 5.34 -5 5 C-5 4.34 -5 3.68 -5 3 C-3.02 3 -1.04 3 1 3 C0.34 2.34 -0.32 1.68 -1 1 C-0.67 0.67 -0.34 0.34 0 0 Z " fill="#30241F" transform="translate(36,10)"/>
<path d="M0 0 C0.33 4.29 0.66 8.58 1 13 C-0.65 13 -2.3 13 -4 13 C-4 12.34 -4 11.68 -4 11 C-4.66 11 -5.32 11 -6 11 C-7.75 8.8125 -7.75 8.8125 -9 6 C-8.5 3.25 -8.5 3.25 -7 1 C-4.54115028 0.20087384 -2.56909202 0 0 0 Z " fill="#C4917E" transform="translate(37,54)"/>
<path d="M0 0 C2.3125 0.1875 2.3125 0.1875 5 1 C7.76196064 4.4524508 8.49513741 7.65818169 9 12 C9.66 12 10.32 12 11 12 C11.99 13.485 11.99 13.485 13 15 C12.67 15.99 12.34 16.98 12 18 C10.8553125 17.4740625 10.8553125 17.4740625 9.6875 16.9375 C6.95240621 15.67639116 6.95240621 15.67639116 4 17 C3.96261719 16.27554688 3.92523438 15.55109375 3.88671875 14.8046875 C3.50139002 9.13808848 3.015464 4.85096382 0 0 Z " fill="#746051" transform="translate(78,38)"/>
<path d="M0 0 C0.33 0 0.66 0 1 0 C1.33 3.3 1.66 6.6 2 10 C2.66 10 3.32 10 4 10 C4 11.32 4 12.64 4 14 C4.66 14 5.32 14 6 14 C6 14.66 6 15.32 6 16 C6.99 16 7.98 16 9 16 C9 16.66 9 17.32 9 18 C9.66 18 10.32 18 11 18 C11 18.66 11 19.32 11 20 C12.65 20 14.3 20 16 20 C16 20.33 16 20.66 16 21 C13.69 21 11.38 21 9 21 C9 22.65 9 24.3 9 26 C6 25 6 25 4.6484375 22.671875 C4.22820313 21.70765625 3.80796875 20.7434375 3.375 19.75 C2.94960938 18.79609375 2.52421875 17.8421875 2.0859375 16.859375 C0.45716819 12.57067307 -0.1307419 8.75970747 -0.0625 4.1875 C-0.05347656 3.39730469 -0.04445313 2.60710938 -0.03515625 1.79296875 C-0.02355469 1.20128906 -0.01195313 0.60960937 0 0 Z " fill="#98745F" transform="translate(22,47)"/>
<path d="M0 0 C2.96052484 3.36423277 3.92289822 6.69159287 5 11 C4.360625 11.556875 3.72125 12.11375 3.0625 12.6875 C0.80319013 15.22066561 0.36850953 16.68341424 0 20 C-1.98 20 -3.96 20 -6 20 C-5.53898063 17.51049538 -4.9117852 15.85808924 -3.5625 13.6875 C-0.97450992 9.23615706 0 5.12609547 0 0 Z " fill="#A2A5AA" transform="translate(75,71)"/>
<path d="M0 0 C2.97 0.495 2.97 0.495 6 1 C7.34956003 5.0486801 7.33485934 8.78077237 7 13 C5 15 5 15 3 16 C2.34 15.67 1.68 15.34 1 15 C1.33 12.03 1.66 9.06 2 6 C1.01 6.33 0.02 6.66 -1 7 C-0.67 4.69 -0.34 2.38 0 0 Z " fill="#A5A4A3" transform="translate(74,41)"/>
<path d="M0 0 C0.99 0.495 0.99 0.495 2 1 C1.95875 1.70125 1.9175 2.4025 1.875 3.125 C2.01668332 6.38371628 2.86734686 8.9559947 4 12 C6.31 12 8.62 12 11 12 C10.65555119 9.52733235 10.65555119 9.52733235 10 7 C9.34 6.67 8.68 6.34 8 6 C8.33 4.02 8.66 2.04 9 0 C11 3 11 3 11 5 C11.66 5 12.32 5 13 5 C13.36010591 12.32215357 13.36010591 12.32215357 11.9375 15 C8.86784865 16.58433618 6.38318857 16.36248449 3 16 C1.29296875 14.89453125 1.29296875 14.89453125 0 13 C-0.29296875 9.86328125 -0.29296875 9.86328125 -0.1875 6.3125 C-0.16042969 5.13300781 -0.13335938 3.95351563 -0.10546875 2.73828125 C-0.07066406 1.83464844 -0.03585937 0.93101562 0 0 Z " fill="#C99E73" transform="translate(0,0)"/>
<path d="M0 0 C0.625 1.875 0.625 1.875 1 4 C0.34 4.66 -0.32 5.32 -1 6 C-1.6425235 8.06874034 -1.6425235 8.06874034 -2 10 C-2.66 10 -3.32 10 -4 10 C-4.33 10.99 -4.66 11.98 -5 13 C-5 12.01 -5 11.02 -5 10 C-5.6290625 10.3609375 -6.258125 10.721875 -6.90625 11.09375 C-12.6316918 14.19790519 -16.49166252 15.60262384 -23 15 C-23 14.67 -23 14.34 -23 14 C-22.25234375 13.87625 -21.5046875 13.7525 -20.734375 13.625 C-14.88176869 12.5620258 -14.88176869 12.5620258 -10.37890625 9.01953125 C-9.41910049 7.03312007 -8.62752231 5.11349513 -8 3 C-7.34 3.33 -6.68 3.66 -6 4 C-3.40952023 3.24714403 -3.40952023 3.24714403 -1 2 C-0.67 1.34 -0.34 0.68 0 0 Z " fill="#231D1A" transform="translate(65,74)"/>
<path d="M0 0 C0.33 0.66 0.66 1.32 1 2 C0.01 2 -0.98 2 -2 2 C-2 2.66 -2 3.32 -2 4 C-0.35 4.33 1.3 4.66 3 5 C3.33 5.99 3.66 6.98 4 8 C3.01 8 2.02 8 1 8 C1 7.34 1 6.68 1 6 C0.34 6 -0.32 6 -1 6 C-1 6.66 -1 7.32 -1 8 C-4.3 7.67 -7.6 7.34 -11 7 C-11 5.35 -11 3.7 -11 2 C-7.36576791 -0.32590854 -4.22911669 -0.16265833 0 0 Z " fill="#322018" transform="translate(60,42)"/>
<path d="M0 0 C1.62463842 -0.05395478 3.24978541 -0.09277195 4.875 -0.125 C5.77992187 -0.14820313 6.68484375 -0.17140625 7.6171875 -0.1953125 C10 0 10 0 12 2 C12.125 4.625 12.125 4.625 12 7 C8.66666667 7 5.33333333 7 2 7 C2 6.34 2 5.68 2 5 C1.34 5 0.68 5 0 5 C0 5.66 0 6.32 0 7 C-0.66 7 -1.32 7 -2 7 C-0.25 3.125 -0.25 3.125 2 2 C1.34 1.34 0.68 0.68 0 0 Z " fill="#462A21" transform="translate(30,42)"/>
<path d="M0 0 C0.99 0.33 1.98 0.66 3 1 C3 1.99 3 2.98 3 4 C3.99 3.34 4.98 2.68 6 2 C8.6875 1.875 8.6875 1.875 11 2 C10.01 2.33 9.02 2.66 8 3 C7.26676204 5.01508358 7.26676204 5.01508358 7 7 C6.34 7 5.68 7 5 7 C4.34 8.65 3.68 10.3 3 12 C2.67 12 2.34 12 2 12 C2 10.02 2 8.04 2 6 C1.34 5.67 0.68 5.34 0 5 C-0.66 6.65 -1.32 8.3 -2 10 C-2.66 10 -3.32 10 -4 10 C-5 7 -5 7 -4.25 4.4375 C-3 2 -3 2 0 0 Z " fill="#281F1A" transform="translate(24,16)"/>
<path d="M0 0 C0.66 0 1.32 0 2 0 C2.22307542 2.2277397 2.42788178 4.45731364 2.625 6.6875 C2.74101562 7.92886719 2.85703125 9.17023437 2.9765625 10.44921875 C2.99991998 13.9878766 2.46285297 15.84589322 1 19 C0.7834375 20.7634375 0.7834375 20.7634375 0.5625 22.5625 C-0.00254871 26.01557544 -0.55460154 27.55460154 -3 30 C-3.66 30 -4.32 30 -5 30 C-4.72285156 28.92363281 -4.44570312 27.84726562 -4.16015625 26.73828125 C-1.91497094 17.77298854 -0.32235091 9.26758873 0 0 Z " fill="#4D4138" transform="translate(20,0)"/>
<path d="M0 0 C6 2 6 2 7.125 3.6875 C6.92349582 7.41532738 4.98380153 9.87400971 3 13 C1.68 13 0.36 13 -1 13 C-0.67 8.71 -0.34 4.42 0 0 Z " fill="#C5927D" transform="translate(53,54)"/>
<path d="M0 0 C1.875 0.1875 1.875 0.1875 4 1 C5.78284814 4.29826907 6 6.1774751 6 10 C2.04 10 -1.92 10 -6 10 C-6 9.34 -6 8.68 -6 8 C-5.34 8 -4.68 8 -4 8 C-4 7.34 -4 6.68 -4 6 C-3.34 6 -2.68 6 -2 6 C-2 6.66 -2 7.32 -2 8 C-1.34 8 -0.68 8 0 8 C-0.185625 7.05125 -0.37125 6.1025 -0.5625 5.125 C-1 2 -1 2 0 0 Z " fill="#807F7E" transform="translate(14,81)"/>
<path d="M0 0 C0.33 0 0.66 0 1 0 C1 1.65 1 3.3 1 5 C1.99 5.33 2.98 5.66 4 6 C4 8.64 4 11.28 4 14 C2.02 14.33 0.04 14.66 -2 15 C-2.3690205 4.44191344 -2.3690205 4.44191344 0 0 Z " fill="#3F3228" transform="translate(14,43)"/>
<path d="M0 0 C0.99 0.33 1.98 0.66 3 1 C3 1.66 3 2.32 3 3 C4.65 2.67 6.3 2.34 8 2 C7.34 4.31 6.68 6.62 6 9 C5.071875 9.12375 5.071875 9.12375 4.125 9.25 C1.46510021 9.91214206 1.46510021 9.91214206 0 14 C0 9.38 0 4.76 0 0 Z " fill="#707168" transform="translate(2,77)"/>
<path d="M0 0 C1.43655854 -0.08131463 2.8744483 -0.13933559 4.3125 -0.1875 C5.51326172 -0.23970703 5.51326172 -0.23970703 6.73828125 -0.29296875 C9.54022869 0.06997781 10.14614849 0.9491452 12 3 C14.33124929 4.00484883 16.66443537 5.00522247 19 6 C19.33 6.66 19.66 7.32 20 8 C15.06866002 6.91343356 11.21683811 5.8990762 7 3 C6.67 3.66 6.34 4.32 6 5 C3.4375 5.625 3.4375 5.625 1 6 C0.67 4.02 0.34 2.04 0 0 Z " fill="#A28E7E" transform="translate(42,0)"/>
<path d="M0 0 C2.35333796 4.70667591 2.17102038 6.8693886 2 12 C2.66 12 3.32 12 4 12 C4 12.99 4 13.98 4 15 C4.66 15 5.32 15 6 15 C6 18.96 6 22.92 6 27 C5.67 26.01 5.34 25.02 5 24 C4.34 24 3.68 24 3 24 C3.875 18.25 3.875 18.25 5 16 C3.68 16.33 2.36 16.66 1 17 C1 14.69 1 12.38 1 10 C0.34 10 -0.32 10 -1 10 C-0.67 6.7 -0.34 3.4 0 0 Z " fill="#616363" transform="translate(21,64)"/>
<path d="M0 0 C0.33 2.64 0.66 5.28 1 8 C-0.98 8.99 -0.98 8.99 -3 10 C-4.5 8.9375 -4.5 8.9375 -6 7 C-6.1875 3.3125 -6.1875 3.3125 -6 0 C-3.50907189 -1.24546405 -2.58919267 -0.7767578 0 0 Z " fill="#1B1F23" transform="translate(88,65)"/>
<path d="M0 0 C0.33 0 0.66 0 1 0 C1 2.31 1 4.62 1 7 C1.99 7.33 2.98 7.66 4 8 C4.33 8.66 4.66 9.32 5 10 C7.32156597 10.40729228 9.6568787 10.74438677 12 11 C12 11.33 12 11.66 12 12 C10.35 12 8.7 12 7 12 C6.20046862 15.28696233 5.90341064 16.71023192 7 20 C6.34 20 5.68 20 5 20 C5 19.34 5 18.68 5 18 C4.34 18 3.68 18 3 18 C3 16.68 3 15.36 3 14 C2.34 14 1.68 14 1 14 C-0.04976964 10.85069107 -0.10131595 8.61185544 -0.0625 5.3125 C-0.05347656 4.31863281 -0.04445313 3.32476562 -0.03515625 2.30078125 C-0.02355469 1.54152344 -0.01195313 0.78226563 0 0 Z " fill="#BB8B75" transform="translate(23,43)"/>
<path d="M0 0 C0.33 0.66 0.66 1.32 1 2 C1.85754883 1.98952637 2.71509766 1.97905273 3.59863281 1.96826172 C6.78921513 1.93411704 9.97970412 1.90907041 13.17041016 1.89013672 C14.54967315 1.88009747 15.92891496 1.86646323 17.30810547 1.84912109 C19.2938514 1.82478246 21.2797545 1.81456745 23.265625 1.8046875 C25.05661621 1.78897705 25.05661621 1.78897705 26.88378906 1.77294922 C29.85798164 1.98965238 31.50318379 2.43813878 34 4 C31.06281233 4.19461488 28.12550068 4.38097593 25.1875 4.5625 C24.35412109 4.61857422 23.52074219 4.67464844 22.66210938 4.73242188 C21.85966797 4.78076172 21.05722656 4.82910156 20.23046875 4.87890625 C19.49207764 4.9260376 18.75368652 4.97316895 17.99291992 5.02172852 C16 5 16 5 13 4 C10.26134713 3.92948886 7.54972412 3.90642235 4.8125 3.9375 C3.68811523 3.94426758 3.68811523 3.94426758 2.54101562 3.95117188 C0.69397617 3.96293646 -1.15302213 3.98087135 -3 4 C-2.01 2.68 -1.02 1.36 0 0 Z " fill="#BF907D" transform="translate(29,37)"/>
<path d="M0 0 C1.37432457 3.81756824 0.67975039 7.07255329 0 11 C-0.61875 11.12375 -1.2375 11.2475 -1.875 11.375 C-4.19120832 11.87197356 -4.19120832 11.87197356 -6 14 C-8 11 -8 11 -8 7 C-7.34 7 -6.68 7 -6 7 C-6 6.34 -6 5.68 -6 5 C-5.38125 4.9175 -4.7625 4.835 -4.125 4.75 C-1.81562433 4.18741541 -1.81562433 4.18741541 -0.75 1.9375 C-0.5025 1.298125 -0.255 0.65875 0 0 Z " fill="#1E1E1A" transform="translate(17,10)"/>
<path d="M0 0 C0.33 0.66 0.66 1.32 1 2 C1.66 2 2.32 2 3 2 C3 4.97 3 7.94 3 11 C3.33 11 3.66 11 4 11 C4 13.97 4 16.94 4 20 C2.68 19.67 1.36 19.34 0 19 C-0.95494281 12.42150508 -0.8931507 6.58183362 0 0 Z " fill="#AA7464" transform="translate(72,46)"/>
<path d="M0 0 C0 0.66 0 1.32 0 2 C-0.66 2 -1.32 2 -2 2 C-2 2.66 -2 3.32 -2 4 C-1.36191406 4.12117187 -0.72382812 4.24234375 -0.06640625 4.3671875 C1.17302734 4.61855469 1.17302734 4.61855469 2.4375 4.875 C3.26121094 5.03742187 4.08492187 5.19984375 4.93359375 5.3671875 C5.61550781 5.57601563 6.29742187 5.78484375 7 6 C7.33 6.66 7.66 7.32 8 8 C7.43152344 7.91621094 6.86304687 7.83242187 6.27734375 7.74609375 C1.23364455 7.08089803 -3.00294069 7.0431163 -8 8 C-8.66 7.01 -9.32 6.02 -10 5 C-8.90241493 4.15801693 -7.79664683 3.32669329 -6.6875 2.5 C-6.07261719 2.0359375 -5.45773438 1.571875 -4.82421875 1.09375 C-3 0 -3 0 0 0 Z " fill="#5C493B" transform="translate(37,4)"/>
<path d="M0 0 C0.33 0.66 0.66 1.32 1 2 C2.32 1.34 3.64 0.68 5 0 C5 2.64 5 5.28 5 8 C4.34 8 3.68 8 3 8 C3 7.34 3 6.68 3 6 C2.34 6 1.68 6 1 6 C1 6.66 1 7.32 1 8 C0.34 8 -0.32 8 -1 8 C-1 8.66 -1 9.32 -1 10 C-2.65 10 -4.3 10 -6 10 C-5.75 8.125 -5.75 8.125 -5 6 C-3.66666667 5.33333333 -2.33333333 4.66666667 -1 4 C-0.19471111 1.94999129 -0.19471111 1.94999129 0 0 Z " fill="#949797" transform="translate(9,81)"/>
<path d="M0 0 C2.7575666 4.1363499 2.77448194 8.09456279 3.33984375 12.96875 C4.02300757 16.10564423 4.47722273 17.12360596 7 19 C9.09989652 20.17574711 9.09989652 20.17574711 11 21 C11 21.99 11 22.98 11 24 C8.13275314 23.42655063 7.1385485 23.1385485 5 21 C4.34 21 3.68 21 3 21 C3 20.01 3 19.02 3 18 C2.34 18 1.68 18 1 18 C0.10395632 11.95170514 -0.11269443 6.1105424 0 0 Z " fill="#322A27" transform="translate(22,58)"/>
<path d="M0 0 C1.32 0 2.64 0 4 0 C4.10251672 5.12583611 4.03590199 9.94997778 3 15 C2.01 15 1.02 15 0 15 C0 10.05 0 5.1 0 0 Z " fill="#DEB7AE" transform="translate(43,46)"/>
<path d="M0 0 C0.58984375 1.890625 0.58984375 1.890625 1 4 C0.2884375 4.86625 0.2884375 4.86625 -0.4375 5.75 C-2.78575066 9.13148095 -2.13337328 11.93211511 -2 16 C-2.33 16.33 -2.66 16.66 -3 17 C-3.04092937 19.33297433 -3.04241723 21.66705225 -3 24 C-3.66 24 -4.32 24 -5 24 C-7.26599749 10.40401506 -7.26599749 10.40401506 -3 4 C-2.01755155 2.65368175 -1.02323436 1.31558703 0 0 Z " fill="#936C57" transform="translate(29,26)"/>
<path d="M0 0 C2.64 0.66 5.28 1.32 8 2 C8 1.34 8 0.68 8 0 C9.32 0 10.64 0 12 0 C10.75023244 3.65316671 10.32901247 4.78065836 7 7 C5.68 7 4.36 7 3 7 C0 2.92857143 0 2.92857143 0 0 Z " fill="#3B231C" transform="translate(39,63)"/>
<path d="M0 0 C1.84121215 1.09097798 3.67281256 2.19819251 5.5 3.3125 C6.5209375 3.92738281 7.541875 4.54226562 8.59375 5.17578125 C9.3878125 5.77777344 10.181875 6.37976563 11 7 C11 7.99 11 8.98 11 10 C10.01 10.33 9.02 10.66 8 11 C7.26676204 13.01508358 7.26676204 13.01508358 7 15 C6.32880451 13.5437455 5.66318193 12.08492133 5 10.625 C4.62875 9.81289062 4.2575 9.00078125 3.875 8.1640625 C3 6 3 6 3 4 C2.34 4 1.68 4 1 4 C0.67 2.68 0.34 1.36 0 0 Z " fill="#B9B3B2" transform="translate(72,65)"/>
<path d="M0 0 C0.66 0.33 1.32 0.66 2 1 C3.09163808 7.00400944 3.11227478 12.91221201 3 19 C5.31 19.99 7.62 20.98 10 22 C6.79937313 23.60031344 4.27728194 22.03173691 1 21 C-0.03038806 17.00724625 -0.02621716 13.30739778 0.03515625 9.22265625 C-0.00913259 6.42261732 -0.51815927 3.75337563 -1 1 C-0.67 0.67 -0.34 0.34 0 0 Z M10 16 C11 20 11 20 11 20 Z " fill="#AFA49E" transform="translate(75,13)"/>
<path d="M0 0 C5.12583611 -0.10251672 9.94997778 -0.03590199 15 1 C15 1.66 15 2.32 15 3 C9.76528314 3.75612577 5.22745859 4.2063366 0 3 C0 2.01 0 1.02 0 0 Z " fill="#956756" transform="translate(36,80)"/>
<path d="M0 0 C0.99 0 1.98 0 3 0 C3.0270043 1.45823212 3.04639787 2.91660675 3.0625 4.375 C3.07410156 5.18710937 3.08570312 5.99921875 3.09765625 6.8359375 C3 9 3 9 2 11 C1.77532169 12.53668865 1.59203195 14.07968054 1.4375 15.625 C1.35371094 16.44226563 1.26992187 17.25953125 1.18359375 18.1015625 C1.12300781 18.72804688 1.06242187 19.35453125 1 20 C-1.67289025 16.12328894 -1.01875653 12.20732397 -0.625 7.75 C-0.56828125 7.00492188 -0.5115625 6.25984375 -0.453125 5.4921875 C-0.31223742 3.66064892 -0.15748116 1.83018648 0 0 Z " fill="#403029" transform="translate(71,35)"/>
<path d="M0 0 C2.4375 0.8125 2.4375 0.8125 5 2 C5.92867074 4.78601223 6.16342217 6.61066089 6.1875 9.5 C6.20167969 10.2734375 6.21585937 11.046875 6.23046875 11.84375 C6 14 6 14 4 17 C4 14.36 4 11.72 4 9 C3.34 9 2.68 9 2 9 C1.34 6.03 0.68 3.06 0 0 Z " fill="#8C7E75" transform="translate(70,15)"/>
<path d="M0 0 C1.65 0 3.3 0 5 0 C6.17571451 3.67410785 6.07366746 7.16929183 6 11 C5.67 9.68 5.34 8.36 5 7 C4.01 7 3.02 7 2 7 C2 9.97 2 12.94 2 16 C1.67 16 1.34 16 1 16 C0.67 10.72 0.34 5.44 0 0 Z " fill="#5C4D44" transform="translate(69,28)"/>
<path d="M0 0 C1.485 0.99 1.485 0.99 3 2 C3 2.66 3 3.32 3 4 C3.66 4 4.32 4 5 4 C5 6.97 5 9.94 5 13 C3.02 13 1.04 13 -1 13 C0.32 12.67 1.64 12.34 3 12 C2.505 11.13375 2.01 10.2675 1.5 9.375 C-0.0477761 5.89250377 -0.26802896 3.75240542 0 0 Z " fill="#AE7862" transform="translate(48,49)"/>
<path d="M0 0 C0.99 0.33 1.98 0.66 3 1 C3 1.66 3 2.32 3 3 C4.65 3 6.3 3 8 3 C8 5.31 8 7.62 8 10 C7.34 10 6.68 10 6 10 C6 9.34 6 8.68 6 8 C3.03 7.505 3.03 7.505 0 7 C0 4.69 0 2.38 0 0 Z " fill="#70604C" transform="translate(0,13)"/>
<path d="M0 0 C3.63 0 7.26 0 11 0 C11 1.65 11 3.3 11 5 C9.741875 4.87625 8.48375 4.7525 7.1875 4.625 C6.12595703 4.52058594 6.12595703 4.52058594 5.04296875 4.4140625 C3 4 3 4 0 2 C0 1.34 0 0.68 0 0 Z " fill="#403830" transform="translate(51,0)"/>
<path d="M0 0 C0.66 0.66 1.32 1.32 2 2 C1.9765625 5.2578125 1.9765625 5.2578125 1.625 9.125 C1.51414062 10.40632813 1.40328125 11.68765625 1.2890625 13.0078125 C1.19367188 13.99523437 1.09828125 14.98265625 1 16 C0.01 16.33 -0.98 16.66 -2 17 C-1.34 15.35 -0.68 13.7 0 12 C-0.66 12 -1.32 12 -2 12 C-2.17835515 7.45194365 -1.99785435 4.1205746 0 0 Z " fill="#A78478" transform="translate(71,58)"/>
<path d="M0 0 C2.32590854 3.63423209 2.16265833 6.77088331 2 11 C-2.22797927 7.91709845 -2.22797927 7.91709845 -4 6 C-4.375 3.1875 -4.375 3.1875 -4 1 C-2 0 -2 0 0 0 Z " fill="#938374" transform="translate(89,4)"/>
<path d="M0 0 C0.33 0 0.66 0 1 0 C1.08160748 1.89510699 1.13946459 3.79124504 1.1875 5.6875 C1.22230469 6.74324219 1.25710937 7.79898438 1.29296875 8.88671875 C0.96063055 12.41836599 0.11678496 14.18255429 -2 17 C-2.99 17.66 -3.98 18.32 -5 19 C-4.71890887 17.35232753 -4.42481474 15.70686855 -4.125 14.0625 C-3.96257812 13.14597656 -3.80015625 12.22945312 -3.6328125 11.28515625 C-3.42398438 10.53105469 -3.21515625 9.77695313 -3 9 C-2.34 8.67 -1.68 8.34 -1 8 C-0.53476937 6.10466658 -0.53476937 6.10466658 -0.375 3.9375 C-0.25125 2.638125 -0.1275 1.33875 0 0 Z " fill="#494C4C" transform="translate(73,70)"/>
<path d="M0 0 C0.80824219 0.10183594 1.61648437 0.20367187 2.44921875 0.30859375 C3.06410156 0.39238281 3.67898437 0.47617188 4.3125 0.5625 C4.3125 1.5525 4.3125 2.5425 4.3125 3.5625 C0.3525 3.5625 -3.6075 3.5625 -7.6875 3.5625 C-7.6875 2.5725 -7.6875 1.5825 -7.6875 0.5625 C-4.59271121 -0.46909626 -3.16118607 -0.41232862 0 0 Z " fill="#3A241D" transform="translate(46.6875,76.4375)"/>
<path d="M0 0 C1.98 0 3.96 0 6 0 C6 2.64 6 5.28 6 8 C5.34 7.67 4.68 7.34 4 7 C4 6.01 4 5.02 4 4 C2.68 4.33 1.36 4.66 0 5 C0 6.65 0 8.3 0 10 C-0.33 10 -0.66 10 -1 10 C-1.125 2.25 -1.125 2.25 0 0 Z " fill="#9C938D" transform="translate(85,0)"/>
<path d="M0 0 C2.3125 0.1875 2.3125 0.1875 5 1 C6.8125 3.5625 6.8125 3.5625 8 6 C7.01 6.33 6.02 6.66 5 7 C5 10.3 5 13.6 5 17 C4.67 17 4.34 17 4 17 C3.96261719 16.27554688 3.92523438 15.55109375 3.88671875 14.8046875 C3.50139002 9.13808848 3.015464 4.85096382 0 0 Z " fill="#7B7368" transform="translate(78,38)"/>
<path d="M0 0 C0.33 0.66 0.66 1.32 1 2 C1.99 1.67 2.98 1.34 4 1 C3.34 3.64 2.68 6.28 2 9 C0.02 9 -1.96 9 -4 9 C-3.35455571 5.51460083 -1.89865603 2.97180943 0 0 Z " fill="#97999A" transform="translate(73,82)"/>
<path d="M0 0 C6.27 0.33 12.54 0.66 19 1 C19 2.32 19 3.64 19 5 C18.34 5 17.68 5 17 5 C17 4.34 17 3.68 17 3 C11.39 3 5.78 3 0 3 C0 2.01 0 1.02 0 0 Z " fill="#92574F" transform="translate(35,73)"/>
<path d="M0 0 C-0.33 1.98 -0.66 3.96 -1 6 C-2.65 6.33 -4.3 6.66 -6 7 C-7.0625 5.125 -7.0625 5.125 -8 3 C-7.67 2.34 -7.34 1.68 -7 1 C-4.61370553 0.38812962 -2.46459429 0 0 0 Z " fill="#CE9E8D" transform="translate(37,54)"/>
<path d="M0 0 C0.33 0 0.66 0 1 0 C1.36995516 4.56278027 1.36995516 4.56278027 -0.375 6.625 C-0.91125 7.07875 -1.4475 7.5325 -2 8 C-2.99 9.485 -2.99 9.485 -4 11 C-6 8 -6 8 -5.625 5.3125 C-5.41875 4.549375 -5.2125 3.78625 -5 3 C-4.360625 2.87625 -3.72125 2.7525 -3.0625 2.625 C-2.0415625 2.315625 -2.0415625 2.315625 -1 2 C-0.67 1.34 -0.34 0.68 0 0 Z " fill="#AE7F65" transform="translate(69,30)"/>
<path d="M0 0 C2.375 -0.1875 2.375 -0.1875 5 0 C7 3 7 3 7 6 C4.69 6 2.38 6 0 6 C0 4.02 0 2.04 0 0 Z " fill="#8F6C55" transform="translate(84,85)"/>
<path d="M0 0 C-0.14107747 1.45880109 -0.28802415 2.91703551 -0.4375 4.375 C-0.51871094 5.18710938 -0.59992188 5.99921875 -0.68359375 6.8359375 C-1 9 -1 9 -2 11 C-3.32 11 -4.64 11 -6 11 C-6.3125 8.3125 -6.3125 8.3125 -6 5 C-1.76086957 0 -1.76086957 0 0 0 Z " fill="#7E7D7C" transform="translate(81,80)"/>
<path d="M0 0 C-0.33 0.99 -0.66 1.98 -1 3 C-2.175625 2.9690625 -2.175625 2.9690625 -3.375 2.9375 C-5.98114961 2.81315937 -5.98114961 2.81315937 -8 4 C-10.3400417 3.71758117 -12.67504723 3.38749213 -15 3 C-14.401875 2.71125 -13.80375 2.4225 -13.1875 2.125 C-10.80672208 0.95257974 -10.80672208 0.95257974 -8 -1 C-4.61959239 -2.30854488 -3.06759056 -1.8624657 0 0 Z " fill="#6E5D52" transform="translate(53,5)"/>
<path d="M0 0 C7.92 0 15.84 0 24 0 C23.67 0.99 23.34 1.98 23 3 C15.41 2.34 7.82 1.68 0 1 C0 0.67 0 0.34 0 0 Z " fill="#48201E" transform="translate(33,72)"/>
<path d="M0 0 C0.33 0.66 0.66 1.32 1 2 C0.01 2 -0.98 2 -2 2 C-2 2.66 -2 3.32 -2 4 C-4.97 4 -7.94 4 -11 4 C-10.67 3.01 -10.34 2.02 -10 1 C-6.52674819 -0.1577506 -3.63932552 -0.06866652 0 0 Z " fill="#452B21" transform="translate(60,42)"/>
<path d="M0 0 C2.49118953 3.7367843 2.2065226 5.74451819 2.125 10.1875 C2.10695313 11.45980469 2.08890625 12.73210937 2.0703125 14.04296875 C2.03550781 15.50669922 2.03550781 15.50669922 2 17 C0.35 15.35 -1.3 13.7 -3 12 C-2.50886719 11.60167969 -2.01773438 11.20335938 -1.51171875 10.79296875 C0.43183425 8.4878245 0.316536 7.2803281 0.1875 4.3125 C0.16042969 3.50425781 0.13335937 2.69601563 0.10546875 1.86328125 C0.07066406 1.24839844 0.03585938 0.63351563 0 0 Z " fill="#625C5C" transform="translate(89,65)"/>
<path d="M0 0 C0 0.66 0 1.32 0 2 C-0.99 2 -1.98 2 -3 2 C-3.268125 2.556875 -3.53625 3.11375 -3.8125 3.6875 C-4.204375 4.450625 -4.59625 5.21375 -5 6 C-5.391875 6.9075 -5.78375 7.815 -6.1875 8.75 C-6.785625 9.4925 -7.38375 10.235 -8 11 C-11.6875 11.3125 -11.6875 11.3125 -15 11 C-13.68 10.67 -12.36 10.34 -11 10 C-11 9.34 -11 8.68 -11 8 C-10.195625 7.360625 -9.39125 6.72125 -8.5625 6.0625 C-5.76279268 4.18964068 -5.76279268 4.18964068 -5 1 C-3 0 -3 0 0 0 Z " fill="#B4826B" transform="translate(67,57)"/>
<path d="M0 0 C0.66 0.33 1.32 0.66 2 1 C2.4140625 3.50390625 2.4140625 3.50390625 2.625 6.5625 C2.69976563 7.57441406 2.77453125 8.58632813 2.8515625 9.62890625 C2.92503906 10.80259766 2.92503906 10.80259766 3 12 C1.68 11.34 0.36 10.68 -1 10 C-1.125 2.25 -1.125 2.25 0 0 Z " fill="#806F62" transform="translate(18,35)"/>
<path d="M0 0 C0.33 0.66 0.66 1.32 1 2 C1.99 2 2.98 2 4 2 C4 2.66 4 3.32 4 4 C4.66 4 5.32 4 6 4 C6 4.66 6 5.32 6 6 C7.65 6 9.3 6 11 6 C11 6.33 11 6.66 11 7 C8.69 7 6.38 7 4 7 C3.67 7.99 3.34 8.98 3 10 C1.11608215 6.73454239 0.50712033 3.71888239 0 0 Z " fill="#A67962" transform="translate(27,61)"/>
<path d="M0 0 C2.97 0.33 5.94 0.66 9 1 C9 1.66 9 2.32 9 3 C5.28400809 3.20086443 4.22791555 3.1519437 1 1 C1.495 1.78375 1.99 2.5675 2.5 3.375 C4 6 4 6 4 8 C2.35 8 0.7 8 -1 8 C-0.67 5.36 -0.34 2.72 0 0 Z " fill="#6E463B" transform="translate(38,62)"/>
<path d="M0 0 C-0.99 0.33 -1.98 0.66 -3 1 C-3.73323796 3.01508358 -3.73323796 3.01508358 -4 5 C-4.66 5 -5.32 5 -6 5 C-6.66 6.65 -7.32 8.3 -8 10 C-8.33 10 -8.66 10 -9 10 C-8.39779006 3.61657459 -8.39779006 3.61657459 -6.75 1.0625 C-4.41628148 -0.35440053 -2.67863922 -0.21718696 0 0 Z " fill="#1B1512" transform="translate(35,18)"/>
<path d="M0 0 C0.66 0 1.32 0 2 0 C2.33 4.62 2.66 9.24 3 14 C2.01 14.66 1.02 15.32 0 16 C0 10.72 0 5.44 0 0 Z " fill="#605549" transform="translate(20,0)"/>
<path d="M0 0 C0.33 0 0.66 0 1 0 C1.28571429 8.57142857 1.28571429 8.57142857 -1 12 C-1.66 12 -2.32 12 -3 12 C-5.0078864 12.64252365 -7.00882592 13.30741771 -9 14 C-9 13.34 -9 12.68 -9 12 C-8.01 12 -7.02 12 -6 12 C-6 11.34 -6 10.68 -6 10 C-4.35 9.34 -2.7 8.68 -1 8 C-0.67 5.36 -0.34 2.72 0 0 Z " fill="#342C25" transform="translate(67,65)"/>
<path d="M0 0 C0.66 0.33 1.32 0.66 2 1 C1.01 2.485 1.01 2.485 0 4 C-0.66 4 -1.32 4 -2 4 C-1.67 7.3 -1.34 10.6 -1 14 C-1.99 14.33 -2.98 14.66 -4 15 C-4 11.37 -4 7.74 -4 4 C-3.01 3.67 -2.02 3.34 -1 3 C-0.67 2.01 -0.34 1.02 0 0 Z " fill="#827163" transform="translate(14,63)"/>
<path d="M0 0 C0.66 0.66 1.32 1.32 2 2 C1.625 4.625 1.625 4.625 1 7 C0.01 7 -0.98 7 -2 7 C-2 5.68 -2 4.36 -2 3 C-4.31 3.33 -6.62 3.66 -9 4 C-3 0 -3 0 0 0 Z " fill="#664737" transform="translate(59,69)"/>
<path d="M0 0 C0.33 0 0.66 0 1 0 C2.57300962 5.73303505 3.24327778 10.15659442 2 16 C1.34 16 0.68 16 0 16 C-0.82622671 10.39436958 -1.06795656 5.57710648 0 0 Z " fill="#B79589" transform="translate(19,51)"/>
<path d="M0 0 C0 0.33 0 0.66 0 1 C-0.79664062 1.02578125 -1.59328125 1.0515625 -2.4140625 1.078125 C-8.9140472 1.42605605 -12.94811521 1.85486377 -18 6 C-18.99 6.33 -19.98 6.66 -21 7 C-21 6.34 -21 5.68 -21 5 C-14.75003116 -1.24996884 -8.46014287 -0.52802556 0 0 Z " fill="#895C49" transform="translate(51,19)"/>
<path d="M0 0 C0.99 0 1.98 0 3 0 C3 2.31 3 4.62 3 7 C2.34 6.01 1.68 5.02 1 4 C-0.485 6.475 -0.485 6.475 -2 9 C-2.33 8.34 -2.66 7.68 -3 7 C-3.66 7 -4.32 7 -5 7 C-4.67 6.01 -4.34 5.02 -4 4 C-3.01 3.67 -2.02 3.34 -1 3 C-0.67 2.01 -0.34 1.02 0 0 Z " fill="#878B8C" transform="translate(19,74)"/>
<path d="M0 0 C2.475 0.495 2.475 0.495 5 1 C5.33 2.32 5.66 3.64 6 5 C3.525 6.485 3.525 6.485 1 8 C0.67 5.36 0.34 2.72 0 0 Z " fill="#CE9B87" transform="translate(54,55)"/>
<path d="M0 0 C1.32 0.66 2.64 1.32 4 2 C2.6875 3.5 2.6875 3.5 1 5 C0.01 5 -0.98 5 -2 5 C-2 5.66 -2 6.32 -2 7 C-2.66 7 -3.32 7 -4 7 C-4.66 5.35 -5.32 3.7 -6 2 C-4.02 2 -2.04 2 0 2 C0 1.34 0 0.68 0 0 Z " fill="#3C312C" transform="translate(52,5)"/>
<path d="M0 0 C0.99 0.33 1.98 0.66 3 1 C2.67 2.65 2.34 4.3 2 6 C0.35 6 -1.3 6 -3 6 C-2.625 3.5625 -2.625 3.5625 -2 1 C-1.34 0.67 -0.68 0.34 0 0 Z " fill="#F3DDC8" transform="translate(7,7)"/>
<path d="M0 0 C0.66 0 1.32 0 2 0 C2.16873478 1.43725871 2.33490737 2.87481838 2.5 4.3125 C2.5928125 5.11300781 2.685625 5.91351563 2.78125 6.73828125 C3 9 3 9 3 12 C2.01 12.33 1.02 12.66 0 13 C0 8.71 0 4.42 0 0 Z " fill="#938375" transform="translate(22,0)"/>
<path d="M0 0 C0.33 0 0.66 0 1 0 C1.21755666 5.4389165 1.10428384 9.87080814 -1 15 C-1.33 15 -1.66 15 -2 15 C-2.05386629 12.87527424 -2.09273071 10.75016348 -2.125 8.625 C-2.14820312 7.44164062 -2.17140625 6.25828125 -2.1953125 5.0390625 C-2 2 -2 2 0 0 Z " fill="#7C7975" transform="translate(81,55)"/>
<path d="M0 0 C5.65394631 -0.34615998 9.03006806 0.56574762 14 3 C14 3.99 14 4.98 14 6 C13.360625 5.731875 12.72125 5.46375 12.0625 5.1875 C8.08797739 3.64635858 4.05115505 2.32390688 0 1 C0 0.67 0 0.34 0 0 Z " fill="#9B7059" transform="translate(51,18)"/>
<path d="M0 0 C2 3 2 3 2 5 C2.66 5 3.32 5 4 5 C4 7.64 4 10.28 4 13 C3.01 13.495 3.01 13.495 2 14 C1.87625 12.865625 1.7525 11.73125 1.625 10.5625 C1.41875 9.386875 1.2125 8.21125 1 7 C0.34 6.67 -0.32 6.34 -1 6 C-0.67 4.02 -0.34 2.04 0 0 Z " fill="#CB9867" transform="translate(9,0)"/>
<path d="M0 0 C0.99 0.495 0.99 0.495 2 1 C2 1.66 2 2.32 2 3 C3.32 3.33 4.64 3.66 6 4 C6 4.66 6 5.32 6 6 C5.34 6 4.68 6 4 6 C4.33 7.65 4.66 9.3 5 11 C2.65808437 8.8709858 1.16445046 6.95591271 0 4 C0 2.68 0 1.36 0 0 Z " fill="#191615" transform="translate(27,78)"/>
<path d="M0 0 C0.598125 0.226875 1.19625 0.45375 1.8125 0.6875 C1.8125 1.3475 1.8125 2.0075 1.8125 2.6875 C0.8225 3.0175 -0.1675 3.3475 -1.1875 3.6875 C-2.19392948 5.01598691 -3.19442179 6.34900329 -4.1875 7.6875 C-4.8475 7.6875 -5.5075 7.6875 -6.1875 7.6875 C-5.82037028 4.97074005 -5.46005401 3.07686287 -3.875 0.8125 C-2.1875 -0.3125 -2.1875 -0.3125 0 0 Z " fill="#A6A9AA" transform="translate(16.1875,75.3125)"/>
<path d="M0 0 C0.66 0 1.32 0 2 0 C2 1.32 2 2.64 2 4 C1.01 4.33 0.02 4.66 -1 5 C-2.0194119 5.98020375 -3.02246356 6.97803008 -4 8 C-4.33 8 -4.66 8 -5 8 C-5.33 5.69 -5.66 3.38 -6 1 C-3.525 1.495 -3.525 1.495 -1 2 C-0.67 1.34 -0.34 0.68 0 0 Z " fill="#967E72" transform="translate(15,59)"/>
<path d="M0 0 C1.66611905 -0.042721 3.33382885 -0.04063832 5 0 C6 1 6 1 6.0625 3.5625 C6.041875 4.366875 6.02125 5.17125 6 6 C3.5625 5.25 3.5625 5.25 1 4 C0.1875 1.875 0.1875 1.875 0 0 Z " fill="#443932" transform="translate(85,55)"/>
<path d="M0 0 C1.60294922 0.01353516 1.60294922 0.01353516 3.23828125 0.02734375 C4.04652344 0.03894531 4.85476562 0.05054688 5.6875 0.0625 C5.6875 0.3925 5.6875 0.7225 5.6875 1.0625 C4.92824219 1.12308594 4.16898438 1.18367188 3.38671875 1.24609375 C2.39285156 1.32988281 1.39898437 1.41367187 0.375 1.5 C-0.61113281 1.58121094 -1.59726562 1.66242187 -2.61328125 1.74609375 C-5.40625599 1.98062559 -5.40625599 1.98062559 -8.3125 3.0625 C-8.6425 4.7125 -8.9725 6.3625 -9.3125 8.0625 C-11.3125 5.0625 -11.3125 5.0625 -11.3125 1.0625 C-7.47525828 0.15836327 -3.93747726 -0.04326898 0 0 Z " fill="#885D4C" transform="translate(58.3125,40.9375)"/>
<path d="M0 0 C0.33 0.66 0.66 1.32 1 2 C0.00390625 4.3828125 0.00390625 4.3828125 -1.4375 7.125 C-1.91058594 8.03507812 -2.38367188 8.94515625 -2.87109375 9.8828125 C-3.24363281 10.58148438 -3.61617188 11.28015625 -4 12 C-4.99 12 -5.98 12 -7 12 C-7 11.34 -7 10.68 -7 10 C-6.34 10 -5.68 10 -5 10 C-4.87625 9.2575 -4.7525 8.515 -4.625 7.75 C-4.03879534 5.17069951 -3.36715445 3.2517838 -2 1 C-1.34 0.67 -0.68 0.34 0 0 Z " fill="#765542" transform="translate(68,59)"/>
<path d="M0 0 C0 0.99 0 1.98 0 3 C-0.66 3 -1.32 3 -2 3 C-2 3.66 -2 4.32 -2 5 C-3.65 5 -5.3 5 -7 5 C-6.625 3.0625 -6.625 3.0625 -6 1 C-4 0 -4 0 0 0 Z " fill="#AE9582" transform="translate(10,86)"/>
<path d="M0 0 C2.32528287 2.32528287 2.29511025 2.84665898 2.3125 6 C2.32925781 6.70125 2.34601563 7.4025 2.36328125 8.125 C2.18345703 9.053125 2.18345703 9.053125 2 10 C1.01 10.66 0.02 11.32 -1 12 C-2.36884358 7.48281619 -1.47075246 4.41225737 0 0 Z " fill="#B18770" transform="translate(68,45)"/>
<path d="M0 0 C1.32 0.33 2.64 0.66 4 1 C4.33 3.64 4.66 6.28 5 9 C4.34 8.67 3.68 8.34 3 8 C3 7.34 3 6.68 3 6 C2.34 6 1.68 6 1 6 C0.67 4.02 0.34 2.04 0 0 Z " fill="#A77B68" transform="translate(86,44)"/>
<path d="M0 0 C0.33 0.66 0.66 1.32 1 2 C3.08807 2.61272305 3.08807 2.61272305 5.5 3 C7.96875 3.4375 7.96875 3.4375 10 4 C10.33 4.66 10.66 5.32 11 6 C9.56208484 5.85831863 8.1246763 5.71148957 6.6875 5.5625 C5.88699219 5.48128906 5.08648437 5.40007813 4.26171875 5.31640625 C2 5 2 5 -1 4 C-1 1 -1 1 0 0 Z " fill="#6A584E" transform="translate(34,6)"/>
<path d="M0 0 C0.33 0.66 0.66 1.32 1 2 C1.99 2.33 2.98 2.66 4 3 C4 4.65 4 6.3 4 8 C3.34 6.68 2.68 5.36 2 4 C0.05925139 4.27617533 0.05925139 4.27617533 -2 5 C-2.66 5.99 -3.32 6.98 -4 8 C-4.33 6.02 -4.66 4.04 -5 2 C-3.35 1.34 -1.7 0.68 0 0 Z " fill="#EDD1AF" transform="translate(7,4)"/>
<path d="M0 0 C1.64826111 2.96687001 2.44271087 5.65626525 3 9 C2.01 9.33 1.02 9.66 0 10 C0 9.01 0 8.02 0 7 C-0.66 6.67 -1.32 6.34 -2 6 C-1.34 4.02 -0.68 2.04 0 0 Z " fill="#70716F" transform="translate(66,77)"/>
<path d="M0 0 C1.31223496 3.93670488 0.24296256 6.12488144 -1 10 C-1.66 10 -2.32 10 -3 10 C-3 7.03 -3 4.06 -3 1 C-2.01 0.67 -1.02 0.34 0 0 Z " fill="#52493F" transform="translate(15,66)"/>
<path d="M0 0 C0.33 2.64 0.66 5.28 1 8 C0.01 8.495 0.01 8.495 -1 9 C-1.33 6.36 -1.66 3.72 -2 1 C-3.32 1.33 -4.64 1.66 -6 2 C-6 1.34 -6 0.68 -6 0 C-3.50907189 -1.24546405 -2.58919267 -0.7767578 0 0 Z " fill="#2A292B" transform="translate(88,65)"/>
<path d="M0 0 C1.32 0 2.64 0 4 0 C4 0.66 4 1.32 4 2 C4.66 2 5.32 2 6 2 C6 3.65 6 5.3 6 7 C5.01 7.33 4.02 7.66 3 8 C3 6.02 3 4.04 3 2 C2.01 2.33 1.02 2.66 0 3 C0 2.01 0 1.02 0 0 Z " fill="#BBB3B0" transform="translate(73,45)"/>
<path d="M0 0 C0.64453125 1.765625 0.64453125 1.765625 1 4 C0.07421875 5.921875 0.07421875 5.921875 -1.3125 7.75 C-1.98732422 8.67039062 -1.98732422 8.67039062 -2.67578125 9.609375 C-3.11277344 10.06828125 -3.54976562 10.5271875 -4 11 C-4.66 11 -5.32 11 -6 11 C-4.18690997 7.22272911 -2.0926741 3.62730178 0 0 Z " fill="#855B48" transform="translate(29,26)"/>
<path d="M0 0 C0.66 0 1.32 0 2 0 C2.6496875 1.36125 2.6496875 1.36125 3.3125 2.75 C4.83939409 5.92540611 4.83939409 5.92540611 6.6875 8.1875 C8 10 8 10 8 13 C5 12 5 12 3.61328125 9.53125 C3.18402344 8.5309375 2.75476563 7.530625 2.3125 6.5 C1.87550781 5.4996875 1.43851563 4.499375 0.98828125 3.46875 C0 1 0 1 0 0 Z " fill="#866451" transform="translate(23,60)"/>
<path d="M0 0 C0.33 0 0.66 0 1 0 C1 2.97 1 5.94 1 9 C-0.32 8.67 -1.64 8.34 -3 8 C-1.125 1.125 -1.125 1.125 0 0 Z " fill="#636765" transform="translate(75,57)"/>
<path d="M0 0 C1.41777182 0.08785338 2.83429039 0.19604647 4.25 0.3125 C5.43335938 0.39951172 5.43335938 0.39951172 6.640625 0.48828125 C9 1 9 1 13 4 C8.71 4 4.42 4 0 4 C0 2.66666667 0 1.33333333 0 0 Z " fill="#453A33" transform="translate(26,10)"/>
<path d="M0 0 C1.98 0 3.96 0 6 0 C5.67 1.65 5.34 3.3 5 5 C4.01 5.33 3.02 5.66 2 6 C2 5.34 2 4.68 2 4 C1.34 3.67 0.68 3.34 0 3 C0 2.01 0 1.02 0 0 Z " fill="#897C71" transform="translate(35,0)"/>
<path d="M0 0 C2.62386487 3.06117568 3 3.73173127 3 8 C3.66 8.33 4.32 8.66 5 9 C3.35 9 1.7 9 0 9 C0 6.03 0 3.06 0 0 Z " fill="#333534" transform="translate(27,82)"/>
<path d="M0 0 C2.5 1.375 2.5 1.375 5 3 C5 3.66 5 4.32 5 5 C5.66 5 6.32 5 7 5 C7.33 6.65 7.66 8.3 8 10 C7.34 9.67 6.68 9.34 6 9 C6 8.34 6 7.68 6 7 C5.01 6.67 4.02 6.34 3 6 C1 3 1 3 0 0 Z " fill="#B49683" transform="translate(83,78)"/>
<path d="M0 0 C2.31 0 4.62 0 7 0 C7 0.33 7 0.66 7 1 C8.65 1.33 10.3 1.66 12 2 C9.82443801 3.32087692 8.56899513 4.07112439 6 3.75 C3.91235527 2.96713323 1.96470761 2.05252193 0 1 C0 0.67 0 0.34 0 0 Z " fill="#7F5C4D" transform="translate(31,68)"/>
<path d="M0 0 C1.62723299 0.45034123 3.25173664 0.91055354 4.875 1.375 C5.77992187 1.63023438 6.68484375 1.88546875 7.6171875 2.1484375 C10 3 10 3 12 5 C11.67 5.99 11.34 6.98 11 8 C10.64808594 7.03320312 10.64808594 7.03320312 10.2890625 6.046875 C9.18838927 3.7922092 9.18838927 3.7922092 6.8359375 3.390625 C5.61777344 3.32101563 5.61777344 3.32101563 4.375 3.25 C3.14910156 3.16492187 3.14910156 3.16492187 1.8984375 3.078125 C1.27195312 3.05234375 0.64546875 3.0265625 0 3 C0 2.01 0 1.02 0 0 Z " fill="#A1958C" transform="translate(75,33)"/>
<path d="M0 0 C-0.66 2.64 -1.32 5.28 -2 8 C-1.34 8.33 -0.68 8.66 0 9 C-1.32 8.67 -2.64 8.34 -4 8 C-3.67 7.01 -3.34 6.02 -3 5 C-3.66 4.67 -4.32 4.34 -5 4 C-4.67 3.01 -4.34 2.02 -4 1 C-2 0 -2 0 0 0 Z " fill="#868A8B" transform="translate(26,80)"/>
<path d="M0 0 C0.33 0 0.66 0 1 0 C1 3.96 1 7.92 1 12 C0.67 11.01 0.34 10.02 0 9 C-0.66 9 -1.32 9 -2 9 C-1.51421457 5.87709365 -1.0013988 3.00419641 0 0 Z " fill="#575858" transform="translate(26,79)"/>
<path d="M0 0 C3.3 0 6.6 0 10 0 C10 0.33 10 0.66 10 1 C8.35 1.33 6.7 1.66 5 2 C5 2.33 5 2.66 5 3 C2.69 3.33 0.38 3.66 -2 4 C-1.34 2.68 -0.68 1.36 0 0 Z " fill="#584035" transform="translate(27,41)"/>
<path d="M0 0 C0.99 0.33 1.98 0.66 3 1 C-0.44615385 5.8 -0.44615385 5.8 -3.25 6.8125 C-4.11625 6.9053125 -4.11625 6.9053125 -5 7 C-3.47793991 4.37098712 -2.15634036 2.15634036 0 0 Z " fill="#372A22" transform="translate(25,11)"/>
<path d="M0 0 C-0.99 1.485 -0.99 1.485 -2 3 C-2.99 3 -3.98 3 -5 3 C-5 2.34 -5 1.68 -5 1 C-5.66 1 -6.32 1 -7 1 C-7 1.66 -7 2.32 -7 3 C-7.66 3 -8.32 3 -9 3 C-8.67 2.01 -8.34 1.02 -8 0 C-4.71303767 -0.79953138 -3.28976808 -1.09658936 0 0 Z " fill="#251914" transform="translate(37,46)"/>
<path d="M0 0 C0.66 0 1.32 0 2 0 C2 1.65 2 3.3 2 5 C-0.64 4.67 -3.28 4.34 -6 4 C-3 2 -3 2 0 2 C0 1.34 0 0.68 0 0 Z " fill="#4C4A43" transform="translate(60,0)"/>
<path d="M0 0 C0.99 0 1.98 0 3 0 C3 3.96 3 7.92 3 12 C2.34 11.67 1.68 11.34 1 11 C0.5859375 8.49609375 0.5859375 8.49609375 0.375 5.4375 C0.30023438 4.42558594 0.22546875 3.41367187 0.1484375 2.37109375 C0.09945312 1.58863281 0.05046875 0.80617187 0 0 Z " fill="#B1A399" transform="translate(82,0)"/>
<path d="M0 0 C0.66 0.33 1.32 0.66 2 1 C1.67 1.66 1.34 2.32 1 3 C1.66 3 2.32 3 3 3 C3 3.99 3 4.98 3 6 C1.68 6.33 0.36 6.66 -1 7 C-1.04254356 5.00045254 -1.04080783 2.99958364 -1 1 C-0.67 0.67 -0.34 0.34 0 0 Z " fill="#A5A6A9" transform="translate(18,64)"/>
<path d="M0 0 C2.97 0.495 2.97 0.495 6 1 C5.67 2.32 5.34 3.64 5 5 C2.83125748 4.49396008 1.00032373 4.00016187 -1 3 C-0.67 2.01 -0.34 1.02 0 0 Z " fill="#A29F99" transform="translate(74,41)"/>
<path d="M0 0 C7.75 1.625 7.75 1.625 10 5 C2.25 3.375 2.25 3.375 0 0 Z " fill="#AE9D92" transform="translate(52,3)"/>
<path d="M0 0 C0.66 0 1.32 0 2 0 C4.09350689 3.4019487 4.17942163 6.05272412 4 10 C3.34 9.67 2.68 9.34 2 9 C1.3671875 6.93359375 1.3671875 6.93359375 0.875 4.4375 C0.70742187 3.61121094 0.53984375 2.78492187 0.3671875 1.93359375 C0.24601562 1.29550781 0.12484375 0.65742187 0 0 Z " fill="#A4A0A0" transform="translate(79,75)"/>
<path d="M0 0 C1.65 0 3.3 0 5 0 C2.94766315 2.2477975 1.99332739 3.0022242 -1 4 C-1.33 4.99 -1.66 5.98 -2 7 C-2.33 5.35 -2.66 3.7 -3 2 C-2.01 2 -1.02 2 0 2 C0 1.34 0 0.68 0 0 Z " fill="#674738" transform="translate(37,76)"/>
<path d="M0 0 C0.33 0 0.66 0 1 0 C1 2.31 1 4.62 1 7 C1.99 7.33 2.98 7.66 4 8 C4 8.66 4 9.32 4 10 C2.68 10.33 1.36 10.66 0 11 C0 7.37 0 3.74 0 0 Z " fill="#AC836C" transform="translate(23,43)"/>
<path d="M0 0 C0.99 0 1.98 0 3 0 C2.67 2.64 2.34 5.28 2 8 C1.34 8 0.68 8 0 8 C0 5.36 0 2.72 0 0 Z " fill="#29211D" transform="translate(71,35)"/>
<path d="M0 0 C0.33 1.32 0.66 2.64 1 4 C0.401875 4.103125 -0.19625 4.20625 -0.8125 4.3125 C-3.28243264 5.08876455 -4.32251235 6.07088921 -6 8 C-5.67 6.35 -5.34 4.7 -5 3 C-4.360625 2.87625 -3.72125 2.7525 -3.0625 2.625 C-2.0415625 2.315625 -2.0415625 2.315625 -1 2 C-0.67 1.34 -0.34 0.68 0 0 Z " fill="#B4866C" transform="translate(69,30)"/>
<path d="M0 0 C0.433125 0.495 0.86625 0.99 1.3125 1.5 C2.99740483 3.33218192 2.99740483 3.33218192 6 3 C6.33 3.99 6.66 4.98 7 6 C5.68 6.33 4.36 6.66 3 7 C0 2.25 0 2.25 0 0 Z " fill="#1D1714" transform="translate(54,9)"/>
<path d="M0 0 C1.7074998 1.28062485 3.37373596 2.61767557 5 4 C5 4.66 5 5.32 5 6 C3.35 6 1.7 6 0 6 C0 4.02 0 2.04 0 0 Z " fill="#636464" transform="translate(15,85)"/>
<path d="M0 0 C-0.66 1.98 -1.32 3.96 -2 6 C-2.99 6 -3.98 6 -5 6 C-5 4.68 -5 3.36 -5 2 C-2 0 -2 0 0 0 Z " fill="#707170" transform="translate(65,85)"/>
<path d="M0 0 C0.99 0 1.98 0 3 0 C3 1.98 3 3.96 3 6 C2.01 5.67 1.02 5.34 0 5 C-0.33 4.34 -0.66 3.68 -1 3 C-0.67 2.01 -0.34 1.02 0 0 Z " fill="#868886" transform="translate(67,76)"/>
<path d="M0 0 C0.99 0 1.98 0 3 0 C3 2.31 3 4.62 3 7 C2.01 7.33 1.02 7.66 0 8 C0.66 6.35 1.32 4.7 2 3 C1.34 3 0.68 3 0 3 C0 2.01 0 1.02 0 0 Z " fill="#9FA0A0" transform="translate(69,67)"/>
<path d="M0 0 C2.475 0.495 2.475 0.495 5 1 C4.67 2.32 4.34 3.64 4 5 C3.01 5 2.02 5 1 5 C0.67 3.35 0.34 1.7 0 0 Z " fill="#291E18" transform="translate(66,19)"/>
<path d="M0 0 C3.625 -0.1875 3.625 -0.1875 7 0 C5.01046676 1.98953324 3.59565478 2.97746933 1 4 C0.01 3.67 -0.98 3.34 -2 3 C-1.34 2.01 -0.68 1.02 0 0 Z " fill="#493B34" transform="translate(29,15)"/>
<path d="M0 0 C0.66 0.99 1.32 1.98 2 3 C1.67 3.66 1.34 4.32 1 5 C-0.65 5 -2.3 5 -4 5 C-4.33 4.01 -4.66 3.02 -5 2 C-3.68 2 -2.36 2 -1 2 C-0.67 1.34 -0.34 0.68 0 0 Z " fill="#87857F" transform="translate(9,75)"/>
<path d="M0 0 C0.33 0 0.66 0 1 0 C1.9765625 6.0546875 1.9765625 6.0546875 2 8 C1.34 8.66 0.68 9.32 0 10 C-1.125 2.25 -1.125 2.25 0 0 Z " fill="#6C4D43" transform="translate(21,50)"/>
<path d="M0 0 C0.33 0.66 0.66 1.32 1 2 C1.66 2 2.32 2 3 2 C3 3.32 3 4.64 3 6 C2.34 6 1.68 6 1 6 C0.67 6.99 0.34 7.98 0 9 C0 6.03 0 3.06 0 0 Z " fill="#905542" transform="translate(72,46)"/>
<path d="M0 0 C1.98 0.99 1.98 0.99 4 2 C4 2.99 4 3.98 4 5 C3.01 5 2.02 5 1 5 C0.67 3.35 0.34 1.7 0 0 Z " fill="#302722" transform="translate(55,7)"/>
<path d="M0 0 C0.66 0 1.32 0 2 0 C2 2.31 2 4.62 2 7 C0.68 6.67 -0.64 6.34 -2 6 C-1.34 5.67 -0.68 5.34 0 5 C0 3.35 0 1.7 0 0 Z " fill="#6D665B" transform="translate(62,0)"/>
<path d="M0 0 C2.31 0 4.62 0 7 0 C7 0.66 7 1.32 7 2 C4.69 2.33 2.38 2.66 0 3 C0 2.01 0 1.02 0 0 Z " fill="#A99F98" transform="translate(42,0)"/>
</svg>
